<?xml version="1.0" standalone="no"?>
<!DOCTYPE svg PUBLIC "-//W3C//DTD SVG 1.1//EN" "http://www.w3.org/Graphics/SVG/1.1/DTD/svg11.dtd" >
<svg>
<metadata>
Created by FontForge 20090622 at Fri Oct 14 13:30:22 2016
 By deploy user
Created by User's name with Font.My (http://font.my)
</metadata>
<defs>
<font id="Handwriting" horiz-adv-x="431" >
  <font-face 
    font-family="Handwriting"
    font-weight="500"
    font-stretch="normal"
    units-per-em="1000"
    panose-1="2 0 6 3 0 0 0 0 0 0"
    ascent="800"
    descent="-200"
    x-height="429"
    cap-height="599"
    bbox="33 -223.909 747 688.227"
    underline-thickness="50"
    underline-position="-100"
    unicode-range="U+0020-U+201D"
  />
<missing-glyph horiz-adv-x="364" 
d="M33 0v666h265v-666h-265zM66 33h199v600h-199v-600z" />
    <glyph glyph-name=".notdef" horiz-adv-x="364" 
d="M33 0v666h265v-666h-265zM66 33h199v600h-199v-600z" />
    <glyph glyph-name="NULL" horiz-adv-x="0" 
 />
    <glyph glyph-name="nonmarkingreturn" horiz-adv-x="333" 
 />
    <glyph glyph-name="space" unicode=" " horiz-adv-x="450" 
 />
    <glyph glyph-name="exclam" unicode="!" horiz-adv-x="150" 
d="M91 64l3 -3q5 -5 5 -12.5t-5 -12.5t-12.5 -5t-12.5 5l-3 3q-5 5 -5 12.5t5 12.5t12.5 5t12.5 -5zM100 617l-2 -8q-1 -6 -4 -32q-3 -27 -2 -48q1 -23 1 -44q0 -19 2 -41q2 -23 2 -38v-22l-1 -23q-1 -15 -2 -28q-1 -10 -3 -22q-1 -10 -3 -18l-2 -18t-1 -17v-16l1 -7
q0 -7 -5 -12.5t-12 -6t-12.5 4.5t-5.5 12l-1 7v18t1 20t3 20l2 18t3 21l2 25l1 23v20q0 14 -2 36q-2 23 -2 44q0 20 -1 42q-1 25 2 53q3 29 5 37l2 7q1 7 7.5 11t13.5 2.5t11 -7.5t2 -13z" />
    <glyph glyph-name="quotedbl" unicode="&#x22;" horiz-adv-x="290" 
d="M238 625l1 -33q2 -33 1.5 -60t-3.5 -51l-3 -24q0 -7 -6 -11.5t-13 -4t-11.5 6.5t-3.5 13l2 24q3 23 3.5 48t-1.5 57l-1 33q-1 7 4 12.5t12 6t12.5 -4.5t6.5 -12zM83 644l7 -14q9 -16 15 -45q5 -28 6 -57q1 -27 0 -45q-1 -19 -5 -30l-3 -10q-2 -6 -8.5 -9.5t-13 -1.5
t-10 8.5t-1.5 13.5l3 9q2 7 3 22q1 16 0 42t-6 51q-5 24 -11 36l-7 14q-3 6 -1 13t8.5 10.5t13.5 1t10 -8.5z" />
    <glyph glyph-name="numbersign" unicode="#" horiz-adv-x="724" 
d="M72 239l10 -2q13 -2 100 1q4 1 9 1q4 19 11 42q16 59 35 121q-25 0 -44 1q-64 3 -71 3h-6q-7 1 -12 6.5t-4.5 12.5t6 12t12.5 4h6q6 0 71 -3q22 -2 53 -1l26 94q13 49 20 84l7 36q2 7 8 11t13 2.5t11 -7.5t2 -13l-7 -36q-7 -36 -20 -86l-23 -83q47 3 107 10q16 1 30 3
q13 40 25 70q26 65 31 76l5 11q2 7 9 9.5t13.5 0t9.5 -9.5t0 -14l-5 -11q-5 -10 -31 -75q-9 -23 -19 -54q85 8 130 8l61 1q7 0 12 -5.5t5 -12.5t-5 -12t-12 -5l-61 -1q-47 0 -142 -9q-12 -39 -25 -86q-12 -40 -20 -75q122 14 188 15h66q7 1 12.5 -4.5t5.5 -12.5t-5 -12
t-12 -6h-67q-65 -1 -188 -16q-5 0 -9 -1q-9 -39 -13 -71q-11 -72 -15 -109q-5 -35 -4 -42v-9q1 -7 -4 -12.5t-12 -6t-12.5 4t-6.5 12.5v8q-1 11 4 49q4 38 15 110q4 28 11 62q-75 -8 -138 -12q-4 -18 -6 -32q-5 -36 -6 -67q-1 -32 -2 -50q0 -18 1 -26l1 -9q0 -7 -4.5 -12.5
t-11.5 -6.5t-13 3.5t-6 11.5l-1 10q-1 10 -1 30q1 19 2 50q1 33 6 71q2 11 5 25q-97 -4 -110 0l-10 2q-7 2 -10.5 8.5t-2 13.5t8 10.5t13.5 1.5zM410 415q-7 0 -14 -1q-71 -8 -122 -10v-1q-21 -67 -39 -131q-4 -17 -8 -31q64 4 139 12q9 41 23 90z" />
    <glyph glyph-name="ampersand" unicode="&#x26;" horiz-adv-x="531" 
d="M204 399l31 24q24 18 37 29q11 10 21 22q9 12 15 30q7 18 5 31q-2 14 -7 26q-5 10 -19 19q-13 9 -32 8q-20 0 -37 -10t-34 -32q-15 -20 -17 -35.5t7 -37.5l22 -56q4 -8 8 -18zM188 343q-15 -12 -29 -25q-24 -21 -47 -55q-23 -33 -26 -68t5 -55q8 -19 24 -29
q16 -11 45 -16.5t51 -0.5q22 4 46 17q18 10 40 26q-12 15 -22 32q-18 27 -45 81t-41 90q0 1 -1 3zM469 285l-4 -8q-4 -9 -26 -38l-43 -58q-21 -26 -51 -50q16 -20 38 -40q27 -24 38 -35q11 -9 26 -23l20 -17l8 -6q5 -5 6 -12t-3.5 -13t-11.5 -6.5t-13 3.5l-7 6q-8 6 -22 19
q-15 14 -26 23l-39 36q-23 21 -41 43q-24 -18 -44 -28q-28 -16 -56 -22t-64 1t-59 22q-24 16 -36 45q-12 28 -8 71.5t32 83.5q26 39 52 62q20 18 40 33q-6 14 -11 27l-23 56q-12 30 -9 54.5t24 53.5q21 27 45 41t53 14q31 1 53 -14t31 -33q8 -17 10 -37q2 -21 -6 -46
q-9 -24 -21 -40q-12 -15 -27 -27q-13 -12 -37 -31l-40 -30q3 -6 5 -13q13 -35 39 -87q27 -52 43 -77l20 -30q27 23 44 45l43 56q19 27 22 34l4 7q3 6 10 8.5t13.5 -0.5t9 -10t-0.5 -13z" />
    <glyph glyph-name="quotesingle" unicode="'" horiz-adv-x="145" 
d="M87 624l2 -13q3 -14 6 -43q3 -31 -1 -58q-3 -26 -6 -36q-2 -8 -2 -16l-1 -9q-1 -7 -6.5 -11.5t-12.5 -4t-12 6t-4 12.5l1 9q1 10 3 21q2 8 5 33q3 23 1 50q-3 27 -5 39l-3 13q-1 7 3 13t11 7.5t13 -2.5t8 -11z" />
    <glyph glyph-name="parenleft" unicode="(" horiz-adv-x="346" 
d="M257 650l-4 2q-1 -1 -2 -1q-9 -7 -23 -22q-14 -14 -33 -41t-37 -60.5t-32 -70.5q-15 -36 -23 -77q-9 -41 -14 -82q-5 -39 -4 -75t4 -67q4 -31 11 -57q8 -27 19.5 -55.5t23.5 -51.5l25 -44q13 -21 26 -39l28 -35q12 -17 22 -28q9 -11 21 -20q11 -10 17 -13l6 -5
q6 -4 7.5 -11t-2 -13t-11 -7.5t-13.5 2.5l-6 4q-8 5 -21 16t-24 24q-11 12 -24 30q-13 16 -27 35q-15 19 -29 42l-26 46t-25.5 54t-20.5 59t-12 63q-3 33 -4 70q-1 38 4 81q5 41 15 85q9 43 24 82t34 74t39 64q21 30 37 46t26 24q18 15 34 8l7 -3q7 -3 9.5 -10t0 -13.5
t-9.5 -9t-13 -0.5z" />
    <glyph glyph-name="parenright" unicode=")" horiz-adv-x="300" 
d="M107 673l13 -15q13 -16 26 -36q11 -18 31 -48q23 -31 34 -58t20 -65q9 -37 13 -64q3 -26 5 -52q2 -27 1 -66q-1 -40 -7 -79l-11 -70q-6 -34 -13 -53q-6 -19 -17 -50q-12 -31 -21 -47q-8 -14 -17 -32l-19 -33q-10 -14 -24 -30q-13 -14 -19 -21q-5 -5 -12 -16l-8 -12
q-4 -6 -11 -7.5t-13 2.5t-7.5 11t2.5 13l8 12q8 14 15 21q6 7 19 21q12 13 20 25.5t17 28.5q10 20 19 35q7 13 18 42q11 30 17 48q6 17 11 48q6 32 12 70q5 36 6 74q1 37 -1 62t-5 50q-4 25 -12 61t-18 60q-10 23 -30 51q-22 30 -33 50q-11 17 -23 31l-13 16q-5 5 -4.5 12.5
t6 12t13 4t12.5 -6.5z" />
    <glyph glyph-name="plus" unicode="+" horiz-adv-x="595" 
d="M66 323h6q8 1 80 3q38 0 86 -3l2 35q6 68 16 114q11 48 16 58l4 7q3 7 10 9.5t13.5 -1t9 -10.5t-1.5 -13l-3 -8q-4 -7 -13 -49q-11 -45 -16 -110l-2 -35q33 -2 70 -7q117 -14 145 -16.5t34 -2.5h7q7 -1 12 -6.5t4.5 -12.5t-5.5 -12t-13 -4h-6q-7 0 -36 3t-146 16
q-36 5 -67 7q0 -30 1 -61q4 -67 7 -89q3 -24 5 -37q1 -12 3 -19l2 -7q1 -7 -2.5 -13.5t-10.5 -8t-13.5 2.5t-7.5 11l-2 7q-2 9 -4 23q-2 13 -5 36q-3 24 -7 92q-2 33 -1 66q-48 3 -84 3q-70 -2 -77 -2l-7 -1q-7 -1 -12.5 3.5t-6.5 11.5t3.5 13t12.5 7z" />
    <glyph glyph-name="comma" unicode="," horiz-adv-x="173" 
d="M113 94l5 -16q6 -19 5 -46q-1 -26 -5 -40q-4 -15 -11 -28q-5 -11 -12 -25t-9 -20l-2 -6q-3 -7 -9.5 -10t-13 -0.5t-9.5 9.5t-1 13l3 7q2 7 9 22t13 26q5 10 8 21t4 32t-3 34l-5 16q-3 7 0.5 13.5t10 9t13.5 -1t9 -10.5z" />
    <glyph glyph-name="hyphen" unicode="-" horiz-adv-x="412" 
d="M68 314l26 -1q27 -1 102 -4q76 -4 114 -8l37 -4q7 -1 11.5 -7t3.5 -13t-6.5 -11.5t-12.5 -3.5l-37 4q-36 5 -111 8l-102 4l-26 1q-7 0 -12 5.5t-5 12.5t5.5 12t12.5 5z" />
    <glyph glyph-name="period" unicode="." horiz-adv-x="148" 
d="M79 89q7 1 12.5 -4t5.5 -12l1 -15q0 -5 -2 -9q4 -10 -3 -20t-17 -10t-17.5 6.5t-8.5 15.5q-1 10 2 23l3 11q3 14 18 13q3 1 6 1z" />
    <glyph glyph-name="slash" unicode="/" horiz-adv-x="414" 
d="M52 -22l5 8q3 6 12 39q10 35 53 150l87 220l64 151.5l30 69.5q11 24 15 35q5 11 10 19l4 7q4 6 11 8t13 -1.5t8 -10.5t-2 -13l-4 -8q-3 -6 -8 -15q-4 -11 -14.5 -35l-30.5 -70l-63 -150.5t-87 -219.5q-42 -113 -52 -147q-10 -37 -16 -46l-4 -8q-4 -7 -11 -8.5t-13 2
t-8 10.5t1 13z" />
    <glyph glyph-name="zero" unicode="0" horiz-adv-x="493" 
d="M316 583l-6 1q-4 1 -16 0t-25 -7q-15 -8 -33 -23t-37.5 -36t-32.5 -42q-14 -21 -30 -48t-29 -60q-12 -33 -17 -63q-5 -31 -5 -58.5t4.5 -54t12.5 -50.5t24 -50t32 -40t34 -21q17 -7 38 -7q22 -1 40 4q19 4 38 11q18 6 27 12q8 5 18 22q12 18 25 55q12 37 17 72l9 80
q4 43 4 73t-4.5 54.5t-11.5 45.5q-8 22 -16 38l-19 39q-12 21 -16 27l-6 8q-4 6 -2.5 13t7.5 11t13 3t11 -7l6 -8q6 -8 17.5 -30.5l20.5 -40.5q8 -17 16.5 -41t13.5 -51.5t5 -60t-4 -77.5l-9 -81q-5 -38 -19 -79t-28 -62q-15 -23 -29 -32q-12 -8 -34 -16t-42 -13
q-22 -5 -48 -4q-28 0 -51 9t-44 27q-20 18 -39 48q-18 30 -27 58q-9 27 -14 56t-5 59.5t5 64.5q6 34 19 70q14 35 31 64t31 50q15 23 36.5 46.5t41.5 39.5q21 17 38 27q20 10 39 11q18 2 27 -1l7 -1q7 -2 10.5 -8.5t2 -13t-8 -10.5t-13.5 -2z" />
    <glyph glyph-name="one" unicode="1" horiz-adv-x="304" 
d="M66 616l7 1q8 1 34 1q24 1 49 3q25 3 37 4q21 3 34 -12q11 -11 15 -35q4 -20 6 -57q3 -35 3 -59l3 -73q1 -50 -0.5 -102.5t-4.5 -97.5q-3 -44 -4 -73.5t-0.5 -45.5t1.5 -28q1 -13 1 -22v-8q0 -7 -5.5 -12t-12.5 -5t-12 5t-5 12v8q0 7 -1 19q-1 13 -1.5 30t0.5 47.5
t4 75.5q3 44 4 95q2 52 1 101q-2 50 -2.5 73t-3.5 58q-2 35 -5 53q-3 13 -7 18q-1 1 -4 1q-12 -2 -38 -5q-26 -2 -51 -3q-24 0 -31 -1l-8 -1q-7 -1 -12.5 3.5t-6.5 12t3.5 13t12.5 6.5z" />
    <glyph glyph-name="two" unicode="2" horiz-adv-x="494" 
d="M84 488l8 22q9 25 39 54q30 30 66 42q35 11 74 9t76 -18q36 -15 56 -30q21 -15 30 -29q8 -15 10.5 -32t-4.5 -37q-7 -19 -29 -47q-20 -27 -45 -53l-50.5 -55.5l-56.5 -64l-58 -69.5q-27 -34 -49.5 -68.5t-33.5 -55.5l-20 -38l-2 -5l30 5q45 9 96 13.5t69 4.5
q17 0 45.5 -2.5t44.5 -5.5l23 -4.5t13 -1.5l6 -1q8 -1 12.5 -6.5t3.5 -12.5t-6.5 -11.5t-12.5 -4.5l-6 1q-7 1 -15 2t-24 4q-15 3 -41.5 5.5t-42.5 2.5t-65.5 -4.5t-93.5 -12.5q-46 -9 -61 -7q-11 1 -17 12.5t1 23.5q5 7 12 21q8 16 20 38q12 23 35.5 58.5t51.5 71.5
l58.5 70l57 65l51.5 56q23 25 43 50q18 23 23 37q4 12 3 22t-6 17q-5 9 -21 20q-16 12 -49 26q-31 14 -63.5 15.5t-61.5 -7.5t-53 -33q-24 -25 -30 -42l-8 -22q-2 -6 -9 -9.5t-13.5 -1t-9.5 9.5t-1 13z" />
    <glyph glyph-name="three" unicode="3" horiz-adv-x="548" 
d="M294 278q-20 2 -31 4q-1 0 -8 8t-9 16.5t12 13.5q6 1 28 8q20 7 33 15t30.5 23t30.5 31t26 35q11 17 12.5 27t-0.5 15q-2 8 -8 16q-5 8 -14 17q-11 9 -27 18q-18 9 -38 18q-19 9 -44 17q-23 7 -52 6q-30 -2 -45 -8q-15 -8 -31 -23q-13 -13 -16 -27l-4 -19q-1 -7 -7 -11
t-13 -3t-11.5 7t-2.5 13l3 20q5 25 27 46q20 19 41 28q21 10 57 12q36 1 64 -8t48.5 -18.5l39.5 -18.5q20 -11 33 -23q15 -12 22 -24q8 -13 11 -24q5 -13 2 -31t-18 -41q-14 -21 -29 -38q-14 -18 -33.5 -35t-35.5 -27q-2 -2 -5 -3q5 -1 9 -2q19 -2 34.5 -6t31.5 -10
q18 -8 35 -23q15 -14 27 -30.5t18.5 -33t9.5 -32.5q3 -17 -2 -42q-4 -23 -12 -41t-20 -32q-12 -13 -30 -27.5t-37 -23.5q-18 -10 -43 -15q-22 -4 -48 -5q-26 0 -57 7.5t-67 23.5q-37 17 -61 36q-23 20 -37 37q-15 19 -22 36q-6 15 -8 24l-2 8q-2 7 1.5 13.5t10.5 8t13.5 -2
t7.5 -10.5l2 -8q2 -7 8 -20q4 -13 16 -27q12 -15 32 -32q21 -16 53 -31q34 -15 62 -21q26 -7 48 -7t41 4q20 4 34 12q16 8 31.5 20.5t25.5 23.5q8 9 14 23q6 13 10 33q4 18 2 29q-2 12 -7.5 25t-15 26.5t-22.5 24.5q-12 11 -24 16q-14 6 -27.5 9.5t-30 5.5t-42.5 4z" />
    <glyph glyph-name="four" unicode="4" horiz-adv-x="525" 
d="M412 575q-6 -7 -15 -6q-1 -1 -1 -2q-5 -24 -8 -90q-2 -68 0 -148l3 -122v-8q18 -3 30 -4q13 -2 24 -1h12q8 0 13 -5t5 -12.5t-5 -12.5t-12 -5h-12q-14 -1 -29 1q-11 2 -26 4v-30q-1 -30 0 -48t2 -32q2 -15 4 -24l1 -10q1 -7 -3 -13t-11 -7t-13 3.5t-7 11.5l-2 9
q-1 10 -3 25q-2 16 -3 36q-1 19 0 50v33q-19 2 -42 4q-36 3 -83 1t-99 -7q-56 -6 -65 -4q-10 3 -14.5 13t-1.5 18q2 8 9 27q6 20 18 44t34 59l45 75t68 101q42 58 65 93q24 36 30 44l5 6q5 6 12 7t13 -3.5t6.5 -12t-3.5 -12.5l-6 -7q-5 -6 -27 -41q-24 -36 -67 -95
q-42 -58 -66 -98q-24 -41 -46 -75q-20 -34 -31 -56t-17 -40l-4 -12q15 1 40 3q53 6 101 8q49 2 87 -1q21 -2 39 -4v3l-3 122q-2 81 0 150q3 70 9 97q1 3 1.5 5.5t3 9t5.5 11t7.5 8t10.5 3t13 -6.5l6 -5q6 -5 6.5 -12t-3.5 -13z" />
    <glyph glyph-name="five" unicode="5" horiz-adv-x="538" 
d="M436 565l-51 4q-48 3 -127 -16l-100 -24q-9 -3 -12 -10q-6 -14 -7 -35q-1 -22 0 -52t4 -55q3 -26 4 -43q1 -9 1 -16q14 11 26 23q14 12 31 22.5t34.5 17t31.5 9.5q15 3 37 2t47 -9q26 -7 46 -20q18 -11 31 -24q12 -13 22 -28q11 -16 21 -43t13 -45q2 -19 -1 -44
q-4 -24 -12 -53q-9 -32 -32 -64q-22 -32 -41 -48q-20 -16 -47 -26q-26 -10 -54 -15t-74 -3q-48 3 -81 19q-34 17 -60 56q-24 38 -29 55q-6 16 -6 27l-1 9q0 7 4.5 12.5t11.5 6t12.5 -4t6.5 -11.5l1 -9q0 -7 4 -20q4 -12 26 -45q20 -32 46 -45t67 -15q42 -2 66.5 2t46.5 13
t37 21.5t35 40.5t27 53q8 28 11 49q3 20 1 34t-11 37.5t-17 36.5t-18 22.5t-25 19.5q-16 10 -36 16q-22 6 -39.5 7t-28.5 -1q-12 -3 -26.5 -8t-28.5 -14t-26 -19l-27 -24q-16 -14 -25 -17q-9 -4 -19.5 2t-11.5 17v16q-1 7 -2 22q-1 16 -4 42q-2 27 -4 58t0 55q2 27 9 45
q10 25 36 32q18 4 100 24q85 20 139 17l50 -4q7 0 12 -5.5t4.5 -12.5t-6 -12t-12.5 -5z" />
    <glyph glyph-name="six" unicode="6" horiz-adv-x="496" 
d="M100 339q-11 -34 -13.5 -51t-1.5 -47q1 -29 6 -56t13 -51q9 -24 16 -40q7 -15 18 -27q10 -12 39 -27q29 -14 52 -17q24 -2 33 -2q10 1 30 5q19 4 31 9q10 5 29 29q20 26 30 54q11 29 20 67t9 57q1 20 0 37q-1 15 -4 28q-3 10 -7 15q-6 7 -17 14q-12 7 -33 15
q-23 9 -43 14q-19 5 -45 6q-26 0 -48 -3q-23 -4 -36 -6.5t-40 -8.5q-25 -5 -35 -12zM70 363l4 10q11 28 29 65q27 52 53.5 80.5t79.5 58.5q54 31 100 35l41 3q7 0 13 -4.5t6.5 -12t-4.5 -13t-12 -5.5l-42 -3q-37 -3 -84 -30q-49 -27 -72 -52t-47 -73q-11 -20 -19 -38
q7 2 14 3q28 7 41.5 9.5t37.5 6.5q25 3 54 3q30 -1 53 -7q22 -6 46 -15q25 -9 40 -19q15 -9 24 -19q10 -12 15 -31q3 -15 5 -34q1 -18 0 -40q0 -23 -10 -64q-9 -40 -21 -71q-12 -33 -36 -63q-24 -32 -42 -40q-16 -7 -39 -11q-21 -4 -33 -5q-13 -1 -40 1q-29 3 -64 21t-50 35
q-14 16 -23 35q-8 18 -17 44t-14.5 55.5t-6.5 61.5q-1 33 2 53q3 18 12 50q-3 12 6 20z" />
    <glyph glyph-name="seven" unicode="7" horiz-adv-x="571" 
d="M65 614l38 4q38 5 100 10q62 6 103 7q42 0 70 -1l45 -1q18 -1 26 -1h19q8 -1 16 -1h18q14 0 19 -7t2 -18t-5.5 -17t-5.5 -11q-16 -29 -40 -59q-23 -28 -47 -62t-54 -87q-30 -52 -43 -87q-13 -37 -26 -83q-13 -45 -16.5 -77.5t-3.5 -49.5q1 -18 2 -31v-12q0 -7 -4.5 -12.5
t-12 -6t-13 4.5t-5.5 12v13q-1 13 -2 31q0 19 3.5 54t17.5 84q13 47 27 85t45 92t56 90q25 35 49 64q22 28 38 55q-9 1 -16 1h-17.5t-27.5 1l-46 1q-26 1 -67 1q-40 -1 -101 -6l-99 -10l-37 -5q-8 -1 -13.5 3.5t-6.5 12t3.5 13t11.5 6.5z" />
    <glyph glyph-name="eight" unicode="8" horiz-adv-x="472" 
d="M301 311q-2 -11 -12 -14l-11 -4q-13 -5 -34 -6q-17 -1 -47 -7q-27 -6 -42.5 -15t-26.5 -23q-12 -14 -22 -34t-16 -45q-7 -24 -5 -42q3 -18 8 -30q4 -12 14 -22t30 -17q20 -8 45 -10q27 -2 49 1q23 2 45 5q18 3 41 17t36.5 31.5t22.5 43.5t11 47t-1 46q-3 20 -11 28
q-12 12 -30 24t-32 20zM344 575l-7 4q-14 8 -28 11q-16 3 -42 3q-26 -1 -46 -6q-20 -6 -39.5 -16t-29.5 -18q-9 -7 -16.5 -19.5t-12.5 -41.5q-6 -29 -4 -48q1 -18 9 -29q9 -14 24 -28t37 -26q22 -13 43 -17q19 -3 48 4q29 8 45 20q17 12 29.5 28.5t18.5 33.5t7 42.5t-2 35.5
t-10 20q-8 12 -14 20l-7 8q-8 9 -3 19zM376 575l4 -5q8 -9 17 -22q10 -14 14.5 -29.5t3.5 -47t-9 -53.5t-23.5 -42.5t-36.5 -35.5q-5 -4 -11 -7l30 -19q20 -14 35 -28q16 -17 20 -49q4 -28 2 -53t-13 -55q-10 -32 -28 -54.5t-46 -39.5q-29 -18 -54 -22q-22 -3 -46 -5
q-25 -3 -55 -1t-56 12q-27 11 -42 26t-22 33q-7 16 -9 39q-3 25 5 55q7 29 19 52t26 40q15 18 35.5 30.5t53.5 19.5q7 1 12 2q-15 6 -30 14q-26 15 -44 31.5t-29 33.5q-13 19 -15 46q-2 24 4 58q7 34 18 52t24 29t35.5 22t46.5 18t55 8q30 0 49 -4q20 -4 38 -14l16 -9
q6 -4 8.5 -11t-1.5 -13q0 -1 -1 -2z" />
    <glyph glyph-name="nine" unicode="9" horiz-adv-x="432" 
d="M374 577l-8 -26q-7 -24 -8 -69q-2 -48 -1 -93q1 -46 3 -98q3 -52 4 -120t3 -88t3 -33q0 -12 2 -20q1 -6 4 -13l5 -9q3 -7 0.5 -14t-8.5 -10t-13 -0.5t-10 8.5l-5 10q-6 11 -8 22q-1 10 -2 23t-3 33q-2 21 -3 90q0 21 -1 41q-9 -5 -17.5 -8t-21 -6t-30.5 -5t-29 -1
q-12 0 -27.5 3t-37.5 12q-23 9 -40 19q-17 11 -29 24t-20 27q-7 12 -13 25q-7 14 -10 33q-3 18 -3 41q0 22 3 42.5t6 34.5q4 16 14 35l21 36q11 19 27 33q14 14 48 33q34 20 54.5 25.5t32.5 4.5q14 0 29 -8l12 -5q6 -4 8.5 -11t-1 -13t-10.5 -8.5t-13 0.5l-12 6q-8 4 -13 5
q-8 0 -24 -4.5t-46 -21.5q-30 -18 -42 -29q-11 -10 -20 -25l-20 -34q-8 -16 -11 -27q-3 -12 -5.5 -31t-2.5 -39q0 -19 2 -34q2 -14 7 -24l12 -23q6 -10 15.5 -20t22.5 -18q14 -9 33 -16q20 -8 32.5 -10.5t21.5 -2.5q8 0 24 1q16 2 27 4.5t18 4.5q6 2 12 6q8 5 15 8
q-1 21 -1 40q-3 52 -4 98q-1 47 1 95q1 50 9 78l8 25q2 7 8.5 10.5t13 1.5t10 -8t2.5 -13z" />
    <glyph glyph-name="colon" unicode=":" horiz-adv-x="138" 
d="M80 84l3 -4q5 -5 5 -12t-5 -12t-12.5 -5t-12.5 5l-3 3q-5 5 -5 12t5 12.5t12.5 5.5t12.5 -5zM80 466l3 -4q6 -5 6 -12t-5.5 -12t-12.5 -5t-12 5l-3 3q-5 5 -5 12t5 12.5t12 5.5t12 -5z" />
    <glyph glyph-name="semicolon" unicode=";" horiz-adv-x="162" 
d="M107 89l4 -21q4 -26 -3 -58q-6 -30 -16 -51l-9 -18q-3 -6 -10 -8.5t-13.5 0.5t-8.5 10t1 13l8 18q8 17 14 44q5 25 2 44l-4 22q-1 7 3.5 13t11.5 7t13 -3t7 -12zM100 448l3 -3q5 -5 5 -12.5t-5 -12.5t-12.5 -5t-12.5 5l-3 3q-5 5 -5 12.5t5 12.5t12.5 5t12.5 -5z" />
    <glyph glyph-name="equal" unicode="=" horiz-adv-x="558" 
d="M86 255l10 -3q9 -2 71 -2q65 -1 139 -2q78 0 129 -1h56q7 0 12 -5.5t5 -12.5t-5 -12t-13 -5h-55q-63 1 -129 1q-74 1 -139 2q-68 0 -80 3l-10 3q-7 2 -10.5 8t-2 13t8 11t13.5 2zM71 444l16 -4q14 -3 75 -6q62 -4 136.5 -3.5t126.5 1.5l52 2q7 0 12.5 -5t5.5 -12
t-5 -12.5t-12 -5.5l-52 -2q-53 -1 -128 -2q-75 0 -138 4q-64 3 -81 7l-15 3q-7 2 -11 8t-2.5 13t7.5 11t13 3z" />
    <glyph glyph-name="question" unicode="?" 
d="M200 30l3 -3q5 -5 5 -12t-5 -12.5t-12.5 -5.5t-12.5 6l-3 3q-5 5 -5 12t5 12t12.5 5t12.5 -5zM50 496l4 22q3 25 18 47t31 35q16 15 42 24q25 10 48 13q24 3 59 -3q37 -6 58 -19q21 -14 36 -30t24 -33q9 -18 11 -36q2 -21 -15 -43q-13 -18 -30 -31l-23 -18l-25 -20
l-27 -26q-10 -12 -20 -31l-18 -37q-6 -16 -9 -35t-3 -31t3 -32l3 -21q1 -8 -3.5 -13.5t-11.5 -6.5t-13 3t-7 11l-3 22q-3 22 -3 37t3 37q4 22 12 42q8 19 19 41q12 22 26 37q12 14 30 29q16 14 25 21l24 19q12 9 23 24q9 11 8 19q-1 11 -7 23q-7 13 -18.5 25.5t-28.5 23.5
q-16 10 -45 15q-30 5 -49 2q-20 -3 -41 -10q-19 -8 -31 -18q-13 -11 -25 -28q-10 -16 -13 -34l-3 -21q-1 -7 -7 -11.5t-13 -3.5t-11.5 7t-3.5 13z" />
    <glyph glyph-name="at" unicode="@" horiz-adv-x="728" 
d="M416 97q0 4 -1 7q-3 16 -5 41q-3 25 -1 60q2 34 2 48q1 14 3 35q3 22 6 41t5 29q1 7 1 14q0 3 -3 5q-3 4 -15 8q-13 5 -26 4q-12 0 -27 -5q-17 -6 -41 -19q-23 -12 -44 -35q-20 -24 -29 -46q-10 -24 -17.5 -60.5t-8.5 -60.5q-1 -26 1 -51q3 -24 6 -36q4 -11 8 -15.5
t21 -11.5q16 -7 39 -5q25 2 38 7q15 6 33 14q17 8 28 14t23 15zM429 63q-12 -8 -22 -14q-13 -7 -32 -16l-34 -15q-18 -7 -48 -9q-32 -3 -57 8q-23 10 -32 20t-15 28q-5 16 -7 44q-3 27 -2 55t9.5 67.5t18.5 65.5q12 28 36 56q25 28 53 43q27 14 46 21q20 7 38 7q19 1 38 -6
q21 -7 30 -17q11 -12 12 -27q1 -11 -1 -22q-1 -2 -5 -29q-4 -18 -6 -39q-2 -20 -3 -33q0 -13 -2 -48q-1 -33 1 -55q2 -23 4 -38q3 -13 7 -22q5 -10 12 -19q6 -7 12 -10q8 -4 20.5 -7.5t20.5 -4.5q7 0 16 2q10 4 24 11q13 6 21 15q9 9 18 26l19 33q7 12 12 27q6 15 8 37
q3 25 4 42q2 15 0 36q-2 22 -5 47q-3 24 -8 46q-4 22 -9 46q-5 22 -14 40q-8 20 -18.5 37t-18.5 27q-7 9 -31 29l-39 30q-11 8 -34 13q-25 6 -49 7q-25 1 -45.5 -1t-46.5 -8q-25 -7 -56 -22t-71 -43q-39 -26 -54 -48q-16 -22 -26 -45q-11 -22 -17 -41t-11 -50t-5 -65t2 -60
q1 -25 7 -66q6 -40 17 -75q10 -34 25 -59t31 -41q17 -16 32 -27q16 -12 39 -26q22 -14 54 -25q33 -12 65 -20q31 -8 62 -6q35 1 48 -1l11 -3q7 -1 11 -7t2.5 -13t-8 -11t-13.5 -3l-10 3q-9 1 -40 0q-36 -2 -71 7q-34 8 -69 20q-36 13 -61 29l-40 27q-18 13 -36 31
q-20 19 -37 47.5t-29 67.5q-12 38 -18 81q-5 41 -7 68t-2 62q0 37 5.5 70.5t12 54.5t18.5 46t30 50q18 27 62 57q42 29 76 45q34 17 63 25q28 7 51 9t50 1t55 -8q30 -7 47 -19q15 -10 41 -31q28 -22 37 -35q9 -11 20.5 -30t20.5 -40q10 -22 16 -48l10 -46q4 -23 7 -49l6 -48
q2 -23 0 -42q-1 -18 -4 -43q-3 -26 -10 -45q-7 -18 -15 -33q-8 -13 -18 -32q-11 -20 -24 -33t-30 -22q-16 -9 -30 -13q-16 -5 -29 -4q-11 1 -26.5 5.5t-26.5 9.5q-14 7 -24 20q-7 8 -12 16z" />
    <glyph glyph-name="A" unicode="A" horiz-adv-x="518" 
d="M50 48l2 15q3 17 14 56q10 38 31 99l44 127t31 86l17 39q8 20 24 50l21 44q5 14 7 19q2 6 4 13q6 14 15 13.5t17 -7.5l8 -8q7 -12 15 -39q7 -26 17 -73q9 -46 34 -122q25 -77 41 -118l17 -44h1q7 0 12 -5.5t5 -12.5t-5 -11l18 -43q11 -25 14 -33l8 -16l5 -10
q3 -6 0.5 -13t-9 -10t-13.5 -1t-10 9l-4 9l-9 18q-3 8 -14 33l-21 50q-1 1 -2 3q-3 1 -7 1q-12 2 -56 6q-46 4 -79 6q-32 2 -69 -1l-39 -4q-8 -1 -14 6q-14 -42 -22 -70q-10 -36 -12 -51l-2 -15q-1 -7 -7 -11.5t-13 -3.5t-11.5 7t-3.5 13zM130 208h2l39 3q40 4 74 2t80 -6
q30 -2 45 -4l-11 26q-16 42 -41 120q-26 78 -35 126q-10 46 -17 70q0 1 -1 3l-21 -43q-15 -30 -23 -49l-16 -39q-8 -18 -31 -83.5z" />
    <glyph glyph-name="B" unicode="B" horiz-adv-x="568" 
d="M95 598l3 -16q15 13 54 21q41 9 77 4q33 -5 66 -13.5t61.5 -19.5t42.5 -18q17 -9 27 -20q9 -11 16 -27q8 -18 6 -45t-19 -53q-16 -24 -39 -46q-19 -19 -48 -38q5 -1 8 -1q22 -2 36 -4q16 -2 28 -4.5t26 -6.5q15 -4 26 -9q12 -5 21 -13q9 -9 15.5 -20.5t11.5 -27.5
t4.5 -35t-7.5 -41t-21 -43q-13 -20 -27 -38t-33 -34q-18 -15 -38 -29q-21 -15 -49 -25t-53 -13q-24 -2 -49 -1q-26 1 -73 14q-45 12 -68 20q-22 7 -30 10l-8 3q-7 3 -10 9.5t-1 13t9 10t13 0.5l9 -3q2 0 4 -1v1v7q0 8 1 16v22q-1 14 -1 36q0 19 -1 46q-1 28 0 61q2 32 1 92
t-7 122t-12 96l-6 35q-2 7 2.5 13t11.5 7.5t13 -3t7 -11.5zM116 47q22 -7 61 -18q43 -11 65 -12q23 -1 44 1t44.5 11t41.5 21q19 13 36 27q16 14 28 29q13 16 25 35q11 17 16.5 34.5t6 31t-3.5 24.5q-3 13 -8 20q-3 7 -8.5 11.5t-11.5 7.5q-8 4 -21 7q-13 4 -24 6t-25.5 4
t-34.5 4t-55 1l-29 -2l-14 -4q-43 -9 -70 -10q-26 0 -36 1l-4 -2t-7.5 2.5t-7.5 13.5q-4 14 1.5 19.5t12.5 4.5l7 -1q11 0 35.5 2.5t48.5 5.5q12 1 28 3q18 5 34 12q11 5 22 12q33 21 53 41t34 40q11 18 12.5 36.5t-2.5 28.5q-5 11 -11 18q-5 6 -15 11q-13 7 -40 17
t-58 18.5t-62 12.5q-29 4 -65 -3q-33 -7 -41 -15l-11 -11l-2 -2q4 -31 9 -77q5 -63 6.5 -124t-0.5 -95q-1 -32 0 -58q1 -27 1 -47q0 -22 1 -35v-25q-1 -7 -1 -14v-7q0 -7 -5 -12z" />
    <glyph glyph-name="C" unicode="C" horiz-adv-x="528" 
d="M446 450l-15 22q-13 22 -33 44q-19 22 -48 39q-27 16 -56 19q-30 3 -45 -2q-15 -4 -43 -22q-27 -18 -41 -38q-15 -23 -28 -48.5t-29 -65.5q-15 -39 -19 -61t-4 -43q0 -22 3 -50q2 -28 8 -48.5t18 -45.5l22 -43q8 -15 24 -30q18 -17 36 -32q17 -14 29 -22q11 -7 27 -9
q17 -2 28 1q13 4 32 13.5t30 18.5q12 9 24 20q11 9 22 27q13 19 18 25q5 8 12 16l6 6q5 6 12.5 6t12.5 -4.5t5.5 -12t-4.5 -12.5l-6 -7l-9 -11l-18 -26q-14 -21 -28 -33l-25 -22q-14 -11 -36 -22t-39 -16q-18 -4 -41 -1q-24 3 -41 13q-15 9 -34 25l-37 34q-20 19 -31 39
l-22 44q-14 27 -20.5 50.5t-9.5 54.5t-3 54q0 24 5 49q4 25 20 68q17 42 31 69t30 51q18 26 51 48q32 21 52 27q21 6 58 3q37 -4 71 -24q33 -20 56 -45q22 -25 37 -49l14 -23q4 -6 2.5 -13t-7.5 -11t-13 -2t-11 8z" />
    <glyph glyph-name="D" unicode="D" horiz-adv-x="579" 
d="M91 15q-5 3 -7 9l-2 6q-2 7 -5 15l-6 21q-5 15 -10 40q-4 25 -6.5 57.5t-4.5 71.5q-1 39 1 111q3 73 18 159l15 84q1 7 7 11t13 2.5t12 -7.5l10 5q28 12 88 6q57 -5 92 -16q34 -10 64 -24q32 -15 59 -39q27 -23 45 -42q19 -21 31 -46q12 -24 19 -54t5 -53q-2 -21 -18 -61
q-16 -39 -33 -73q-18 -36 -37 -55q-17 -16 -31 -32q-15 -16 -40 -34t-62 -37l-62 -29q-25 -12 -49 -19q-24 -8 -55.5 -11t-44.5 -2q-12 1 -19 1h-7q-7 0 -12.5 5.5t-5.5 12.5t5.5 12t12.5 5h7h13zM108 14q12 0 30 2q28 3 49 9q21 7 44 18q25 11 61 29q35 17 57 33
q23 16 36 30q14 16 31 33q15 14 30 45q17 33 32 71q15 35 16.5 51.5t-4.5 41.5q-6 26 -16 47q-10 20 -26 37q-16 18 -41 40q-24 20 -51 33q-29 13 -60 23q-32 10 -85 15q-51 4 -71 -4l-25 -11l-1 -1l-11 -58q-15 -82 -17 -153t-0.5 -109.5t3.5 -69.5q2 -30 6.5 -53.5
t8.5 -36.5t7 -21q2 -8 4 -14l2 -6q5 -14 -9 -21z" />
    <glyph glyph-name="E" unicode="E" horiz-adv-x="496" 
d="M52 578q-3 7 -0.5 13.5t8.5 9.5l8 4l-1 8q-1 7 3 13t11 7t13 -3t7 -11q27 9 71 14l117.5 10.5t90.5 6.5q29 1 39 1l10 1q7 0 12.5 -5t5.5 -12t-5 -12.5t-12 -5.5l-10 -1q-10 0 -38 -1t-90 -6t-116 -11q-47 -5 -71 -15q1 -11 1 -35q2 -51 -6 -142q-3 -36 -5 -67l29 1
q36 2 95 9q60 7 98 7l36 1q7 0 12 -5.5t5 -12.5t-5 -12t-12 -5l-36 -1q-36 0 -94 -7q-60 -7 -98 -9l-32 -1q-1 -27 -2 -50q-2 -62 -2 -102q0 -39 2 -59q1 -19 3 -32q1 -12 3 -22q1 -3 4 -5q6 -3 25 -2q27 2 69 8q43 5 78 8t60.5 4t37.5 1t22 -1h9q7 0 12 -5.5t4.5 -13
t-6 -12t-12.5 -4.5l-10 1h-19t-36 -1t-59.5 -3.5t-75.5 -8.5q-43 -6 -71 -8q-35 -2 -49 8q-14 11 -17 27q-3 11 -4 25q-2 14 -3 34q-2 20 -2 61t2 103.5t10 153.5q7 89 5 138v21q-14 -2 -19 10z" />
    <glyph glyph-name="F" unicode="F" horiz-adv-x="429" 
d="M52 280q-3 13 9 19q-4 31 -7 66q-6 51 -3 111q2 61 6 77q7 27 27 27h30q23 1 96 10q76 10 115 7l38 -2q7 0 12 -5.5t4.5 -13t-6 -12t-12.5 -4.5l-38 3q-36 2 -109 -7q-74 -10 -99 -11h-24q-3 -13 -5 -70q-3 -58 2 -107q4 -32 7 -62l32 5q63 12 144 21l80 9q7 1 13 -3.5
t6.5 -12t-4 -13t-11.5 -6.5l-81 -9q-80 -9 -140 -20l-35 -6l9 -78q4 -38 7 -64q3 -27 4 -37q1 -9 2 -15l1 -7q1 -7 -3 -13t-11 -7.5t-13 3t-8 11.5l-1 7q-1 8 -2 18t-4 36t-7 64q-4 36 -8 77q-11 3 -13 14z" />
    <glyph glyph-name="G" unicode="G" horiz-adv-x="529" 
d="M416 478l-11 20q-10 18 -27 39q-16 20 -31.5 29.5t-36.5 13.5t-45 0q-25 -4 -53.5 -17.5t-59.5 -41.5q-30 -26 -42 -51q-12 -27 -18 -56q-5 -29 -7 -59q-1 -29 8 -91t24 -91q16 -31 34 -57q17 -26 33 -38q17 -12 34.5 -21.5t35.5 -16.5l34 -11q14 -3 42 -3q27 0 39 4
q10 4 28 21q17 17 25 34q8 19 13 42t7 56t2 49t-1 26v14h-1q-8 3 -36 3q-31 -1 -57.5 -2t-38.5 -2l-11 -1q-8 -1 -13.5 4t-6 12t4.5 12.5t12 6.5l12 1q12 1 39 2t59 2q35 1 50 -6q23 -9 22 -29v-16q1 -10 1 -27q0 -16 -2 -51t-8 -61t-15 -49q-11 -24 -33 -45.5t-40 -28.5
q-17 -6 -51 -6q-33 0 -51 5q-17 4 -37 11q-20 8 -40 18.5t-39 24.5q-20 16 -41 46q-19 29 -36 61q-17 35 -27 102q-10 66 -9 98q2 32 8 64q6 33 20 64q15 31 51 63q35 30 67.5 46t62.5 21q31 5 58 -0.5t48 -18.5t40 -37t30 -44l12 -19q3 -7 1 -14t-8 -10.5t-13 -1.5t-11 8z
" />
    <glyph glyph-name="H" unicode="H" horiz-adv-x="580" 
d="M523 626l-7 -6q-4 -5 -13 -26q-9 -22 -12 -56q-3 -35 -1 -81t5 -83l2 -34h3l16 -2q7 -1 11.5 -7t3.5 -13t-7 -11.5t-13 -3.5l-11 1v-2q2 -35 3 -71q1 -35 1 -63q-1 -28 -1 -52q1 -23 4 -44t6 -34q4 -14 6 -25l2 -10q1 -7 -3 -13t-11 -7.5t-13 3t-8 11.5l-2 10
q-1 10 -5 23q-3 14 -7 37q-3 23 -3 49q-1 24 0 52q0 28 -1 62q-1 35 -3 70q0 4 -1 8q-1 0 -4 1q-19 1 -48 1q-30 0 -103 -6q-74 -6 -122 -9q-51 -4 -88 2h-1q0 -12 -1 -25q-1 -65 -2 -101q0 -36 1 -64q2 -29 2 -37q1 -9 1 -18v-9q0 -7 -5 -12t-12 -5t-12.5 5t-5.5 12v9v15
q-1 8 -3 38q-1 30 -1 66q1 37 2 102q1 15 1 30q-7 2 -10.5 8t-2.5 12q2 11 13 14q1 35 1 75q0 73 -1 115q-2 42 -2 52v11q-1 7 4 12.5t12 5.5t12.5 -4.5t5.5 -12.5l1 -10q0 -11 1.5 -53t1.5 -116q0 -41 -1 -79l7 -1q33 -6 79 -3l122 10q75 6 106 6q30 0 50 -1l-2 27
q-3 37 -5 85t1 85q4 39 15 66q11 28 20 37l7 7q5 5 12 5t12.5 -5t5.5 -12t-5 -13z" />
    <glyph glyph-name="I" unicode="I" horiz-adv-x="174" 
d="M114 71q5 -15 8 -23l2 -8q2 -7 -1.5 -13.5t-10.5 -8.5t-13 1.5t-8 10.5l-3 8q-2 8 -6 18q-4 11 -8 25q-4 15 -7 34l-6 34q-4 18 -6.5 39.5t-3.5 49.5q-2 28 0 49q1 21 5 60q4 38 6.5 70.5l4.5 60.5t2 42q0 16 3 40l3 24q1 7 7 11.5t13 3.5t11.5 -6.5t3.5 -13.5l-3 -23
q-3 -22 -3 -37t-2 -43l-4.5 -61t-6.5 -72q-4 -38 -5 -58q-2 -19 0 -45q1 -27 3.5 -47.5t5.5 -37.5l6 -35q3 -16 7 -29z" />
    <glyph glyph-name="J" unicode="J" horiz-adv-x="470" 
d="M85 168l4 -20q3 -18 11 -38q7 -21 11 -29q3 -7 9 -13q7 -6 18 -13t22 -13q11 -5 37 -10q28 -5 40 -5q10 -1 22 5q14 5 26 15q11 9 22 26q11 19 22 42t18.5 46.5t13.5 57.5q6 35 9 57q4 21 6 44q3 22 2 45q0 25 -1 63q-1 40 2 62l5 34l2 27q0 12 -1 23q-2 13 -3 22
q-2 11 -2 18l-1 6q-1 7 4 12.5t12 6.5t12.5 -4t6.5 -12v-6q1 -6 2 -15q2 -11 4 -24q1 -14 0.5 -28.5t-1.5 -29.5l-5 -35q-3 -19 -2 -56q1 -39 1 -63q1 -26 -2 -50l-6 -46q-4 -21 -10 -57t-14 -62q-9 -26 -20.5 -51t-24.5 -46q-13 -22 -30 -35q-15 -12 -33 -20q-19 -8 -37 -7
q-15 0 -45 6q-31 6 -45 13q-14 6 -27 14.5t-23 17.5q-11 11 -17 23q-5 10 -12 32q-8 22 -13 43l-4 20q-1 7 3 13t11 7.5t13 -2.5t8 -11z" />
    <glyph glyph-name="K" unicode="K" horiz-adv-x="484" 
d="M122 301l13 26q-11 8 -16 10l-13 6q-6 3 -8.5 10t0.5 13.5t9.5 9t13.5 -0.5l13 -6q8 -4 20 -12q13 18 33 41l71 79q32 37 54 65q23 28 36 41q12 13 21.5 21l17.5 15l9 7q5 5 12.5 4t12 -6.5t4 -12.5t-6.5 -12l-8 -7q-8 -6 -17 -14t-20 -19.5t-33 -38.5q-23 -29 -57 -67
l-70 -78q-18 -21 -31 -39q3 -2 7 -5q40 -30 80 -76q38 -44 66 -81l41 -52t21 -24q6 -7 17 -16l13 -9q6 -4 7 -11.5t-3.5 -13t-11.5 -6.5t-13 3l-13 9q-14 11 -23 21l-21 24.5t-42 53.5q-27 36 -65 79q-37 43 -74 71q-2 2 -4 3l-10 -20q-3 -7 -10 -9t-13.5 1t-9 10t0.5 13z
M91 647l-2 -7q-1 -6 -3 -50t0 -103q1 -60 2 -145q1 -84 2 -118q1 -35 3 -74q1 -40 2 -58t1 -28v-26q0 -7 -5.5 -12.5t-12.5 -5.5t-12 5.5t-5 12.5v26q0 9 -1 27t-2 57q-2 40 -3 74q-1 35 -2 120q-1 84 -2 144q-2 60 0 106t4 55l2 8q1 7 7 11t13 2.5t11 -8t3 -13.5z" />
    <glyph glyph-name="L" unicode="L" horiz-adv-x="439" 
d="M181 46q75 9 108 9q33 1 51 1q16 0 23 1h8q7 0 12.5 -5t6 -12t-4.5 -12.5t-12 -5.5h-8q-8 -1 -25 -1t-50 -1q-32 0 -100 -8q-71 -8 -96 -7h-4.5h-6.5t-6.5 0.5t-7 1.5t-6 3t-5.5 4.5t-3.5 6t-1.5 8.5q-1 8 0 16q1 7 1 18q1 10 0 27q-1 18 -2.5 60.5t-1.5 83.5t3 133.5
t4 141.5q0 48 -2 67l-3 20q0 7 4.5 12.5t11.5 6.5t12.5 -3.5t6.5 -11.5l3 -20q2 -21 2 -71q-1 -50 -4 -146q-3 -89 -3 -129q0 -41 1 -82.5t3 -59.5q1 -18 0 -31q0 -10 -1 -19v-2q3 0 7 -1q23 0 86 7z" />
    <glyph glyph-name="M" unicode="M" horiz-adv-x="663" 
d="M50 68l1 66q1 66 2 140q0 73 2 133t2 86q1 27 1.5 59.5t1.5 46.5q0 15 3 28q2 11 3 19q8 38 44 -10l4 -6q15 -28 28 -61q12 -32 31 -68q18 -38 33 -74t41 -89q27 -56 43 -107q15 -49 22.5 -71.5t17.5 -49.5q4 -14 8 -24l34 74l40 87.5l36 76.5q18 36 33 79q16 46 28 71
t26 48q13 20 22 38.5t12 26.5q3 10 7 18q8 13 16 10t15 -14l6 -11q0 -14 -1 -52t-3 -93q-1 -54 -1.5 -111t-0.5 -107q-1 -53 -1 -95q0 -41 2 -58q2 -18 4 -27l1 -8q1 -7 -3.5 -13t-11.5 -7t-13 3t-7 11l-1 9q-1 9 -4 27q-2 20 -2 64q0 38 1 94q0 51 1 107q0 58 1 112
q2 44 3 78l-13 -21q-12 -20 -23.5 -44t-26.5 -67q-16 -46 -35 -84l-35.5 -75.5l-39.5 -87l-36 -78.5l-2.5 -5t-6.5 -10.5t-9.5 -12.5t-10.5 -8.5t-11 -0.5t-9 13q-2 5 -7 16q-6 12 -15 39q-10 27 -17.5 50l-23.5 73q-15 48 -40 101q-27 55 -42 92q-14 35 -33 71
q-19 38 -32 71l-14 34q-1 -14 -2 -38q0 -33 -1 -59q0 -27 -2 -87q-2 -59 -2 -133q-1 -74 -2 -140l-1 -66q0 -7 -5.5 -12t-12.5 -5t-12 5t-5 13z" />
    <glyph glyph-name="N" unicode="N" horiz-adv-x="535" 
d="M70 61l-4 16q-4 18 -6 78q-3 58 -4 128l-2 133q-2 63 -4 97q-1 35 3 74q4 38 7 55.5t6 26.5q2 12 11.5 14.5t17.5 -1t12 -7.5q10 -11 28 -39l53 -92l63 -116q28 -52 49 -97q22 -44 50 -95l39 -70q10 -17 27 -38q18 -21 27 -30l7 -7q0 11 -1 24q-2 62 -7 113.5t-12.5 104
t-17.5 96.5q-9 46 -11 90q-1 43 1 57t5 25l4 9q2 7 8.5 10t13.5 0.5t10 -9t1 -13.5l-3 -9q-3 -7 -4 -17q-2 -11 -1 -52t11 -84q9 -45 17 -98.5t13 -106t7 -115.5l0.5 -6.5t0.5 -11v-13t-0.5 -14.5t-2 -13t-4 -11t-5.5 -7t-8.5 -2.5t-11.5 4.5q-8 5 -17 14q-7 7 -18 17
l-29 33q-19 23 -31 43l-38.5 70.5t-50.5 96.5l-49 95.5l-63 115l-52 91.5q-6 8 -11 16l-6 -51q-4 -36 -3 -68q2 -35 4 -98l2 -133q1 -70 4 -128q2 -56 5 -70l4 -17q2 -6 -2 -12.5t-10.5 -8t-13 2t-8.5 10.5z" />
    <glyph glyph-name="O" unicode="O" horiz-adv-x="563" 
d="M432 565q8 -1 13 -8l7 -10l15 -24q10 -14 23 -42q13 -29 18 -61q6 -31 6 -58t-5 -57q-4 -30 -11 -55l-16 -56q-10 -33 -25 -67q-15 -35 -35 -61q-20 -27 -41 -43q-22 -16 -42 -19q-18 -2 -39 1q-20 2 -44 7.5t-47 14.5q-24 8 -49 22q-26 15 -45 37q-17 20 -32 44
q-16 26 -24 68q-8 39 -9 69t3 64t13 70q10 38 30 72q19 33 46 60q28 30 90 56q63 28 106 22q41 -6 66 -23l21 -14q5 -3 7 -9zM414 542q-5 1 -8 3l-22 14q-18 12 -51 17t-87 -19q-56 -24 -79 -48q-23 -25 -41 -54t-26 -62q-9 -34 -12.5 -65.5t-2.5 -59.5q1 -27 8 -64
q7 -35 20 -55q13 -22 29 -40q15 -17 35 -29q22 -13 43 -20q22 -8 44 -13t40 -7q17 -2 31 -1q10 1 25 12q17 13 34 35q17 24 31 55q14 32 23 62l16 56q6 24 10 51q5 28 5 52t-5 52t-16 53q-12 25 -20 37l-16 24l-7 10q0 2 -1 4z" />
    <glyph glyph-name="P" unicode="P" horiz-adv-x="591" 
d="M85 621l3 -18q1 -3 2 -7q14 9 44 19q38 12 74 14t71 -1q35 -4 53.5 -8t41.5 -11t49 -21l40 -22q17 -10 28 -23q12 -11 21 -28l16 -27q7 -15 12 -41q4 -27 -1 -47q-5 -18 -16 -41q-12 -24 -38 -44q-25 -21 -56 -34q-29 -12 -71 -24.5t-75 -17.5q-32 -5 -66 -8.5t-54 -4.5
q-19 0 -26 -2l-8 -1q-8 -1 -15 5q1 -20 1 -35q1 -41 3 -71.5l3 -45.5q2 -15 2 -27v-20l-1 -7q-1 -7 -6.5 -12t-12.5 -4.5t-11.5 6.5t-4.5 13l1 7v16.5t-2 24.5l-3 46.5t-3 72.5t-2 117q-1 74 -4 133t-10 97q-6 39 -10 57l-4 18q-1 7 3 13t11 7.5t13 -2.5t8 -11zM114 253
q4 4 9 5l9 1q9 1 29 2q19 1 52.5 4.5t64.5 8.5q30 5 70 16.5t68 23.5q26 11 47 28q20 16 29 33q9 19 13 34q3 13 0 32q-3 21 -8 31q-6 11 -15 25q-8 13 -16 22t-21 16q-14 9 -39 22q-23 12 -43 19q-21 6 -38 9.5t-49 7.5q-32 3 -65 1q-32 -2 -66 -13q-32 -10 -42 -18l-6 -6
l2 -12q6 -41 10 -101q3 -60 4 -134q0 -36 1 -57z" />
    <glyph glyph-name="Q" unicode="Q" horiz-adv-x="623" 
d="M364 182l7 -5q8 -7 34 -36q19 -21 44 -46l14 21q21 35 36 67q14 32 25 72q10 41 13 67t1 50t-12 46q-10 24 -20 38q-11 16 -22 30q-10 13 -33 31l-21 16q-6 0 -11 2l-30 18q-25 15 -79 6q-57 -9 -107.5 -43t-73.5 -74q-25 -41 -33 -76q-9 -34 -11 -87q-1 -53 5 -82
q7 -30 17 -56q9 -25 33 -56q24 -32 48 -51q23 -18 61 -26q40 -8 60 -4q22 3 45 13q22 9 55 38q9 7 16 14q-26 26 -46 49q-24 27 -30 31l-7 6q-5 4 -6 11.5t3.5 13t11.5 6.5t13 -4zM418 576q5 0 9 -1l9 -5q11 -5 36.5 -25.5t38.5 -36.5q12 -15 24 -32t23 -44q12 -28 15 -57
q2 -28 -1 -57q-3 -28 -14 -72q-12 -43 -28 -78q-15 -33 -37 -70q-9 -14 -19 -27q24 -24 36 -33l17 -12q5 -4 6 -11.5t-3 -13t-11.5 -6.5t-12.5 3l-17 12q-14 11 -39 35q-8 -9 -18 -17q-38 -32 -65 -43q-26 -12 -52 -16q-27 -4 -73 5t-76 33q-27 22 -54 57t-38 64t-18 61
q-7 34 -6 91q2 57 12 95q10 39 36 85q28 47 85 85t121 49q67 10 103 -11z" />
    <glyph glyph-name="R" unicode="R" horiz-adv-x="562" 
d="M106 616l-3 -14q2 1 3 1l12 3q14 3 63 2q47 -2 105 -12q60 -10 86 -21.5t54 -32.5q27 -22 38 -36q13 -16 14 -31q1 -17 -19 -42q-18 -22 -59 -50l-73 -48l41 -36q44 -38 78 -104q33 -63 42 -92q8 -28 12 -49q4 -19 8 -41q5 -22 4 -34l-1 -9q-1 -7 -6.5 -11.5t-13 -4
t-12 6.5t-3.5 13l1 9q1 6 -3 24q-5 21 -8 41q-4 19 -12 45q-8 25 -39 86q-31 60 -70 94l-41 36q-4 4 -5 9q-21 -12 -41 -21q-33 -15 -72 -28q-40 -13 -65 -17q-11 -2 -20 -3q0 -12 1 -22q1 -47 4 -96q3 -50 4 -68q0 -17 1 -31v-14q0 -8 -5 -13t-12 -5.5t-12.5 4.5t-5.5 12
v15q-1 14 -1 31l-4 67t-4 97q-1 9 -1 20q-6 0 -10.5 4.5t-5.5 11.5q-1 6 3.5 11.5t11.5 7.5q-2 29 -4 65q-4 74 -4 144q0 72 8 105l8 30q1 7 7.5 10.5t13.5 2t10.5 -8t1.5 -13.5zM99 284q8 1 17 3q22 3 59 15q38 13 68 27t64 35l73 48q37 25 52 43q9 12 11 18q-1 4 -7 11
q-8 11 -32 30t-46 28.5t-77 19.5q-56 9 -101 11q-44 1 -54 -1l-12 -3q-10 -2 -17 6q-5 -30 -5 -84q0 -70 4 -143q2 -35 3 -64z" />
    <glyph glyph-name="S" unicode="S" horiz-adv-x="540" 
d="M430 462l-3 18q-3 16 -11 35q-7 18 -26 34q-18 16 -42 19q-25 3 -53 -4q-29 -8 -63 -26q-31 -16 -41 -32q-11 -19 -17.5 -42.5t-6.5 -45.5q0 -20 8 -37q8 -15 55 -35q50 -23 85 -29q37 -7 61 -15q26 -8 45 -19q20 -11 32.5 -23t21.5 -28q10 -17 14 -41q4 -23 -1 -54
q-4 -29 -10 -46q-6 -20 -27 -37q-18 -15 -45 -30q-27 -16 -58 -28q-32 -13 -64 -17q-33 -3 -67.5 6t-59.5 27q-24 17 -46.5 45t-35.5 58q-12 28 -18 52l-6 23q-2 7 1.5 13.5t10.5 8.5t13 -1.5t8 -10.5l7 -23q6 -22 17 -49q10 -25 29.5 -49t39.5 -39q20 -13 48 -20.5t55 -5.5
q27 3 55 14q29 12 54 26q24 14 40 27q13 11 16 21q4 14 8 40t1 44q-2 17 -9 28q-7 12 -16 20.5t-25 17.5q-17 10 -38 17q-23 7 -58 13q-38 7 -92 31q-59 26 -72 52q-12 24 -12 53q0 26 8 54.5t21 51.5q15 24 55 45q37 20 70 28q35 9 66 6q35 -4 61 -27q25 -22 35 -47
q10 -23 14 -43l3 -18q1 -7 -3.5 -13t-11.5 -7.5t-13 3t-7 11.5z" />
    <glyph glyph-name="T" unicode="T" horiz-adv-x="619" 
d="M68 625h91q92 0 174 -1q83 0 124 -4.5t62 -9.5q20 -4 28 -5l8 -2q7 -1 11 -7t3 -13t-7 -11t-13 -3l-8 1q-8 2 -29 6q-20 4 -59 8.5t-120 4.5h-5q4 -4 3 -10l-1 -33q-1 -32 3 -96l8 -134q4 -68 13 -115q10 -49 12 -70q3 -22 3 -41q-1 -17 0 -26l2 -10q1 -7 -3.5 -13
t-11.5 -7t-13 3.5t-7 11.5l-1 10q-2 12 -1 32q0 16 -2 36q-3 20 -12 68q-10 49 -14 119l-8 134q-4 66 -3 100l1 32q1 5 4 9q-68 1 -141 1h-92q-7 0 -12 5t-5 12.5t5 12.5t13 5z" />
    <glyph glyph-name="U" unicode="U" horiz-adv-x="563" 
d="M120 601l-8 -36q-8 -36 -17 -94q-9 -57 -10 -98v-67q1 -25 3 -48q1 -23 3 -43q2 -21 6 -46q4 -24 10 -40.5t14 -29.5q8 -12 31 -29q24 -19 42.5 -29.5t36.5 -16.5q16 -6 40 -8q22 -1 36 3q14 3 30 12.5t39 33.5q24 23 38 46q15 24 25 48q10 25 21 61q11 35 14.5 56
t3.5 43q-1 22 -4 45l-8 50q-5 27 -8 54q-3 26 -5 45q-3 20 -2.5 36t2 29t3.5 21l2 7q1 7 7.5 11t13.5 2.5t10.5 -8t2.5 -13.5l-2 -7l-3 -18q-2 -11 -2 -24t3 -31q2 -20 5 -46q2 -26 7 -51q5 -27 8 -51q4 -26 5 -50q1 -25 -4 -50q-4 -23 -15.5 -60.5t-22.5 -63.5
q-11 -27 -27 -53t-43 -53q-26 -27 -46 -38.5t-39 -16.5t-48 -4q-28 2 -49 10q-21 7 -42 19t-47 32q-27 21 -38 38q-10 16 -17.5 36t-12.5 47q-4 26 -6 48t-3.5 45t-2.5 49v69q1 43 11 102q9 59 17 96l8 37q1 7 7.5 11t13.5 2t10.5 -8t2.5 -13z" />
    <glyph glyph-name="V" unicode="V" horiz-adv-x="610" 
d="M82 580l16 -25q17 -27 56 -110t71 -166l48 -121q17 -40 25 -57q3 -7 5 -13l19 46l39 104l41.5 109t37.5 92l30 71l17 38q9 18 18.5 34t16.5 25l7 9q4 5 11 6t13 -3t7 -11.5t-3 -12.5l-7 -9q-6 -8 -15 -22.5t-16 -30.5q-8 -16 -17 -37l-30 -70l-37 -92l-41.5 -108.5
l-39.5 -103.5q-14 -39 -25 -61q0 -1 -1 -2t-3 -4.5t-4 -6t-5.5 -6t-6.5 -6t-6.5 -3.5t-6.5 0t-6.5 4t-5.5 9t-7 15l-11.5 26.5l-24.5 56.5q-17 40 -49 123q-31 81 -70 163q-38 81 -53 106l-16 26q-4 6 -2.5 13t7.5 11t13.5 2.5t10.5 -8.5z" />
    <glyph glyph-name="W" unicode="W" horiz-adv-x="797" 
d="M83 618l14 -27q14 -28 36 -91l41.5 -123.5t34.5 -111.5l23 -80q9 -29 14 -48q0 -1 1 -3q3 8 14 35q19 48 38 110.5t28 98.5q8 38 19 82q12 45 19 66q7 19 11 36t8 27q7 16 22 10t17 -15q3 -13 8 -46q5 -32 19 -99t22 -113t18 -97t16.5 -72t14.5 -41q8 -19 19 -36l17 -26
q9 25 18 64q12 45 30 119l32 122q13 50 34 108t29 85q7 26 9 44q3 19 3 25v7q1 7 6 12t12.5 4.5t12 -6t4.5 -12.5v-7q-1 -7 -3 -27q-2 -21 -10 -50q-8 -28 -30 -87q-20 -57 -33 -105l-32 -122l-30 -118q-11 -46 -22 -74q-1 -2 -3 -6.5t-7.5 -12t-11 -12t-12.5 -3t-13 12.5
q-4 7 -11 17l-18 29q-13 20 -22 42q-9 21 -16 44t-17 75q-10 51 -18 97l-22 113q-11 53 -17 85q0 -1 -1 -2l-18 -63q-11 -44 -19 -81q-9 -38 -28.5 -102t-38.5 -113l-28 -70l-7.5 -7.5t-13.5 -12t-15.5 -6t-6.5 15.5q-1 5 -3 18.5t-7 32.5l-14.5 48.5l-23.5 79.5
q-15 52 -34 111l-41 122q-22 62 -35 87l-13 27q-3 7 -1 13.5t8.5 10t13.5 1t10 -8.5z" />
    <glyph glyph-name="X" unicode="X" horiz-adv-x="497" 
d="M106 594l11 -34q11 -32 62 -122l41 -72l57 93l86 137q19 32 22 40l2 8q1 7 7 11.5t13 3t11.5 -7.5t2.5 -13l-1 -8q-2 -12 -27 -53l-86 -137q-41 -64 -67 -109l42 -73l70 -124q18 -33 35 -52l24 -27q8 -7 19 -18l12 -11q5 -5 5.5 -12t-4.5 -12.5t-12.5 -5.5t-12.5 5
l-11 10q-13 12 -20 19q-8 8 -27 29q-18 22 -39 58l-70 123q-15 28 -31 55q-2 -4 -5 -8q-29 -55 -49 -99t-37 -88l-24.5 -63.5t-11.5 -31.5t-6 -20l-3 -7q-2 -7 -8.5 -10.5t-13.5 -1t-10 9t-1 13.5l2 7q3 8 7 20q4 13 11.5 32.5l24.5 64.5q18 45 38.5 90t50.5 100q6 13 15 28
l-51 90q-53 93 -65 128l-11 33q-2 7 1 13.5t10 9t13.5 -1t8.5 -9.5z" />
    <glyph glyph-name="Y" unicode="Y" horiz-adv-x="570" 
d="M512 564l-15 -10q-13 -8 -45 -55q-33 -49 -56 -88l-40 -72q-17 -31 -22 -45t-10 -30t-6 -22q-2 -6 -4 -14q-3 -11 -7 -21q-4 -9 -8 -21q-4 -10 -5 -20t2 -38q3 -30 6 -42l3 -20q2 -8 2 -16l1 -7q1 -7 -3.5 -13t-11.5 -6.5t-13 4t-7 11.5v8q-1 7 -2 13q-2 7 -4 20t-6 44
q-3 31 -2 45q2 15 7 30l9 21q0 2 1 4l-7 9q-10 13 -12 25q-1 6 -5 17q-4 10 -13 29l-32 71q-22 51 -59 110l-66 102l-29 42q-4 6 -2.5 13t7.5 11t13 2.5t11 -7.5l29 -42l66 -103q39 -61 62 -114q22 -51 32 -70q10 -20 14 -33q3 -8 5 -15q0 2 1 3q5 17 10 32q6 16 24 50
l41 72q23 41 57 91q36 52 55 64l15 11q6 4 13.5 2t11.5 -8t2 -13t-8 -11z" />
    <glyph glyph-name="Z" unicode="Z" horiz-adv-x="594" 
d="M68 641l44 -1q44 -1 119 -6t123 -9t68 -5t29.5 -1h16.5q8 1 15 1q10 0 15 -5t5.5 -13t-0.5 -12.5t-2 -7.5q-6 -19 -34 -53l-70 -81q-44 -49 -85.5 -101l-75.5 -97q-33 -46 -51 -76l-38 -61.5l-26 -42.5l-8 -14q19 -1 51 0q43 1 89 0q47 -1 91 -5q44 -3 89 -11.5t64 -14.5
q18 -5 27 -8l8 -3q7 -2 10.5 -8.5t1 -13.5t-9 -10.5t-12.5 -0.5l-9 2q-8 3 -26 8q-18 6 -61 14t-85 12q-43 3 -88.5 4t-87.5 0t-63 1q-4 0 -9 1.5t-13.5 5t-9.5 10t3 17.5q4 8 8 15q4 6 10.5 17l25.5 42.5l38 62.5t53 77l77 99q41 52 84 101l71 81q16 20 24 33h-13
q-9 0 -30 1t-70 5q-48 4 -123 9q-74 5 -117 6l-44 1q-7 0 -12 5t-5 12t5.5 12.5t12.5 5.5z" />
    <glyph glyph-name="a" unicode="a" horiz-adv-x="403" 
d="M76 382l8 14q9 16 19 28t19 19q8 8 19 14q10 6 23 12l23 9q13 6 30 7t28 0t21.5 -3.5t19.5 -5.5q10 -4 18 -8q8 -6 17 -16t14 -22q5 -10 7 -18q3 -8 5 -15t5 -23q2 -16 2 -29v-23v-23q-1 -12 -1 -27t-1 -28q0 -13 -1 -30v-26q-1 -15 -2.5 -28t-3.5 -34q-3 -20 -4 -31
q-2 -11 -3 -21q-2 -8 -2.5 -15t-0.5 -16v-10q0 -7 -5 -12t-12 -5t-12.5 5t-5.5 12v10q0 10 1 18.5t2 18.5v1q-4 -4 -9 -10q-12 -15 -22 -22t-21 -12t-22 -9l-21 -6q-11 -4 -21 -5q-9 -2 -18 -3q-10 -1 -19 -2q-11 0 -20 2t-20 7q-11 4 -19 9q-9 6 -18 14q-10 9 -15 22
q-6 13 -7 29q-2 15 -1 26t4 20q2 10 6 20l9 18q6 10 13.5 18.5t16.5 15.5q9 6 26 16q16 10 27 18q12 9 31 17q18 8 29 11t22 4q12 2 23 1l21 -4q10 -3 17 -6q6 -2 13 -5q4 -2 10 -3v11q0 15 1 27v22v23q0 11 -2 24q-2 14 -3 19l-4 12q-3 6 -7 16q-3 7 -8 13q-6 6 -10 9
q-4 2 -11 5q-8 3 -16 4q-8 2 -17 3q-8 1 -21 0q-12 -1 -20 -4q-9 -4 -22 -9q-11 -5 -19 -10t-14 -10q-7 -6 -15 -16q-8 -9 -15 -22l-8 -14q-3 -6 -10 -8t-13.5 1.5t-8.5 10.5t1 13zM317 226q-12 3 -21 6q-7 3 -14 5q-6 3 -14 5q-7 2 -14 3t-15 0l-17.5 -4t-24.5 -9
q-15 -7 -25 -14q-12 -8 -29 -18q-16 -10 -23 -16q-7 -4 -11.5 -9.5t-8.5 -12.5q-5 -8 -8 -16q-3 -6 -4.5 -13t-2 -15t0.5 -20q0 -11 4 -18q2 -6 7 -11q6 -5 12 -9t15 -7q7 -4 12.5 -5t12.5 -1q7 1 15 2l18 2q7 2 16 4l20 6q9 3 18 8q9 4 15 9q7 4 16 16q13 14 25 24l12 9
q2 2 6 3v1q3 20 4 32t2 27v25q1 7 1 11z" />
    <glyph glyph-name="b" unicode="b" horiz-adv-x="461" 
d="M86 649l6 -30q5 -31 8 -71q2 -39 2 -55v-32q-1 -15 -1 -32v-32q-1 -13 0 -28v-2l3 2q17 18 31 31l24 22q11 8 23 15q11 5 25.5 11t23.5 9q11 3 29 4.5t29 -0.5q10 -1 19 -4q10 -3 29 -18q17 -12 26 -19q9 -8 21 -23q14 -16 20 -38q6 -20 7 -32q1 -11 0.5 -22t-1.5 -21
q-1 -8 -2 -17q-2 -11 -6 -26q-5 -15 -11 -25q-4 -7 -7 -14l-11 -18t-14 -22q-8 -13 -13 -20t-11 -13.5l-15 -15.5l-18.5 -18.5l-17.5 -17.5q-6 -7 -13 -13q-8 -7 -17 -13t-25 -12q-15 -6 -26 -8l-22 -2q-11 0 -34 6q-21 5 -33 10q-10 5 -19 9l-7 5q-1 0 -1 1q0 -5 1 -10
q0 -10 1 -16v-6q0 -7 -4.5 -12.5t-12 -6t-13 4.5t-5.5 12v6q-1 6 -1.5 15.5t-1.5 20.5q-1 12 -1 29q1 16 2 34q2 17 4 42l5 44l4 37l2 35v41q0 21 -1 37q-1 18 0 32v30t1 34v30t-2 53q-3 38 -8 67l-5 30q-1 7 3 13t11 7.5t13 -2.5t7 -12zM85 87q10 9 21 2l7 -4q6 -4 16 -8
q8 -4 27 -9q17 -4 24 -4q8 1 17 2q8 1 20 5.5t18 8.5t12 9q6 6 12 13q7 6 18 17l19 19t12.5 13.5l9 11t11.5 18.5q8 12 14 22q6 8 9 15q4 8 9 16q3 6 7 18t5 19q1 10 2 19q1 8 1.5 16.5t-0.5 17.5q-1 8 -6 25q-4 15 -13 26q-10 12 -17 18l-24 18q-14 11 -19 13q-6 2 -13 3
t-21.5 0t-21.5 -4q-8 -2 -20.5 -7t-22.5 -10q-9 -5 -17 -12q-9 -7 -22 -19l-30 -30l-17 -18q-4 -4 -10 -5v-33q-1 -20 -3 -39q-1 -18 -4 -37q-2 -18 -4 -43q-2 -26 -4 -43l-2 -31v-9z" />
    <glyph glyph-name="c" unicode="c" horiz-adv-x="405" 
d="M317 359l-10 10q-12 11 -24 26q-9 12 -19.5 19t-19.5 9t-24 1q-16 -2 -25 -5t-17 -8q-9 -6 -25 -18t-26 -22q-9 -9 -16 -22q-8 -14 -10.5 -20.5l-6.5 -17.5q-4 -9 -5 -23q-2 -15 -3 -35q-1 -21 -1 -27t2 -21q1 -14 4 -27q2 -13 5 -21t10 -22q7 -13 13 -21q6 -9 12.5 -16
t13.5 -12q6 -6 17 -14q10 -8 17 -12.5t14 -8.5q7 -3 13 -5q6 -1 12 -1t16 4q11 3 22 8t17 8q5 3 12 9q7 7 12 14l10 15q5 8 12 16l6 7q5 6 12 6.5t12.5 -4t6 -11.5t-3.5 -13l-6 -7q-5 -6 -9 -13q-5 -7 -12 -16q-7 -10 -16 -19q-10 -10 -19 -15q-8 -4 -20 -9l-25 -10
q-14 -4 -25 -5q-12 0 -23 3q-10 2 -20 7q-9 5 -17.5 10.5t-19.5 14.5q-11 8 -18 14q-8 7 -15.5 15t-15.5 18q-8 11 -16 27t-12 26q-3 11 -6.5 26t-4.5 31q-2 16 -2 23t1 29t3 39t7 31q5 11 8 18.5t11 23.5q9 17 22 29q12 12 30 26q17 13 27 19q11 7 24 12q13 4 34 7
q21 1 35 -2q15 -3 31 -13.5t28 -27.5q10 -13 19 -21l11 -10q5 -5 5.5 -12t-4.5 -12.5t-12 -6t-13 4.5z" />
    <glyph glyph-name="d" unicode="d" horiz-adv-x="421" 
d="M370 649l-2 -18q-3 -17 -4 -41q-2 -25 -4 -57q-1 -33 -0.5 -46.5t0.5 -28.5q1 -16 1 -32v-8q15 -6 10 -21q-3 -8 -11 -11q0 -18 -1 -33q-1 -16 -1 -27q-1 -10 -1 -20q1 -10 2 -23q2 -15 0 -32q-1 -15 -1 -25t-1 -20v-21v-19v-16q0 -6 1 -14q1 -9 2 -16q1 -8 2 -14
q2 -8 2 -17q1 -8 2 -15q0 -5 2 -12l2 -8q2 -6 -1.5 -12.5t-10.5 -8.5t-13 1.5t-8 10.5l-2 8q-1 1 -1 3l-8 -4q-10 -7 -17 -11t-14.5 -7t-16.5 -6q-8 -3 -19 -6q-12 -4 -24 -6q-13 -3 -22.5 -3t-21 1.5t-27.5 5.5q-17 5 -25 9l-16 10t-18 12q-11 8 -20 21q-8 13 -12 24t-7 23
q-4 11 -5 21q-2 10 -4 21.5t-4 33.5q-3 22 -3 33q0 10 1.5 28.5t3.5 31.5q3 13 6 24q3 9 5 18q3 10 9 25q6 17 12.5 26.5t14.5 17.5l17 14q8 8 17 15l19 17q12 9 20 14q9 4 19 6q9 2 20 3q12 1 22 0t25 -6l28 -12t31 -16q3 -1 6 -3q0 13 -1 25q0 15 -0.5 30t0.5 48
q2 33 4 58q2 26 4 44l3 18q1 7 6.5 11.5t12.5 3.5t11.5 -7t3.5 -13zM325 393q-10 4 -22 11l-28.5 14t-25.5 11q-11 4 -17 5q-6 0 -14 -1q-10 -1 -17 -2q-5 -1 -10 -4q-5 -2 -13 -9l-18 -15l-19 -17l-15 -12q-5 -5 -9 -11.5t-9 -19.5l-8 -23q-3 -10 -6 -19q-2 -8 -4 -19
t-3.5 -28t-1.5 -26t2 -29l4.5 -32t3.5 -20t4 -19q3 -10 6 -19q3 -8 9 -17t12 -13q8 -6 15.5 -10.5t13.5 -8.5q6 -3 18 -6q14 -4 23 -5t15.5 -1t16.5 2t20 5q11 4 20 6q7 3 13 5t11 5q6 3 15 10q11 7 20 11l2 1q-1 4 -1 7q-1 7 -3 15q-1 8 -2 17t-1 18v17v18.5v20.5
q1 11 1 21q0 11 1 27q1 14 0 26q-1 13 -1 24q-1 13 0 25q1 11 1.5 26.5t0.5 35.5v1v1z" />
    <glyph glyph-name="e" unicode="e" horiz-adv-x="454" 
d="M91 286q15 3 35 4q29 1 62 1.5t64 1.5q30 0 42 1q14 1 26 1h45l1 1q4 5 4 10v19q-1 9 -2 20q-2 10 -5 18q-3 7 -9 16q-5 8 -11 14q-8 7 -17 14q-8 6 -18 10t-21 6q-11 3 -26 4q-13 1 -25 0t-24 -5q-11 -3 -17 -6t-18.5 -10.5l-24 -14.5t-18.5 -12q-5 -4 -9.5 -9.5
t-11.5 -21.5l-11 -29l-8 -23q-2 -5 -3 -10zM86 248q-1 -7 -1 -13q0 -10 1 -22.5t3 -25.5t6 -28q5 -15 9 -29l10 -23q5 -10 14 -22t17 -20t15 -16t13 -14t16 -13q8 -7 18 -10q9 -3 19 -2q13 1 32 4q21 4 28 5t15 3q8 1 16 3.5t16.5 5.5t16.5 7q7 4 15 8l8 5q6 3 13 1t10.5 -8
t1.5 -13t-8 -11l-8 -4q-8 -5 -17 -9q-9 -5 -19 -9t-19.5 -6.5t-18.5 -4.5q-9 -1 -16.5 -2.5t-27.5 -4.5q-21 -4 -35 -5q-17 -1 -33 4t-29 15l-19 16l-13 15t-15 16q-9 9 -20 23q-11 15 -18 28q-6 13 -11 27l-9 30q-5 17 -8 32q-2 15 -3 29t-1 25q0 9 1 20q-3 9 2 16
q1 9 2 14q2 9 6 22q3 12 7.5 24t12.5 30q9 21 16 30t17 16q8 6 20 13.5l25.5 15.5t20.5 11q7 4 22 9q14 5 30 6.5t33 -0.5q16 -2 29 -5q13 -2 27 -7q14 -6 26 -15q11 -8 20 -17q10 -9 17 -20t11 -22q5 -11 7 -25q2 -13 3 -25v-21q-1 -15 -10 -28q-11 -17 -27 -17h-48
q-11 0 -23 -1q-14 -1 -45 -1q-30 -1 -64 -1q-32 -1 -60 -2q-26 -2 -40 -6z" />
    <glyph glyph-name="f" unicode="f" horiz-adv-x="395" 
d="M66 469l29 1q23 2 68 0v7v24q0 12 3 31q3 18 5 26q1 7 5 22q3 16 6 24q2 8 5 15q3 9 9 18q8 9 26 19q17 9 29 13q13 4 26 5t25 0l21 -4l8 -3q7 -1 10.5 -7.5t1.5 -13.5t-8.5 -10.5t-13.5 -1.5l-8 2q-6 2 -15 3q-8 1 -18 0t-18 -4q-10 -3 -24 -10q-11 -6 -14 -9
q-3 -5 -4 -9q-3 -6 -5 -13t-5 -22q-4 -15 -5 -22q-2 -6 -4 -24q-3 -16 -3 -25v-24v-8q61 -2 86 -3q26 -1 35 -1h9q7 0 12.5 -5.5t5.5 -12.5t-5.5 -12t-12.5 -5h-9q-10 0 -36 1q-24 1 -83 3q0 -3 1 -6q0 -10 1 -25v-30q-1 -15 -2 -28q-1 -12 -2 -27q0 -15 -1 -40t-3 -58
q-2 -31 -2 -60q-1 -29 2 -53q3 -26 3 -33v-7q1 -7 -4 -12.5t-12 -5.5t-12.5 5t-6.5 12v6q0 6 -3 31q-3 26 -2 57q0 30 2 63q2 32 3 56.5t1 39.5q1 16 2 29q1 12 2 26v28q-1 14 -1 24q-1 5 -1 9q-47 2 -68 0l-28 -1q-8 -1 -13.5 4t-5.5 12t4.5 12.5t11.5 6.5z" />
    <glyph glyph-name="g" unicode="g" horiz-adv-x="474" 
d="M395 418l5 -22q6 -23 10 -50q4 -26 7 -53q3 -26 5 -40q2 -15 2 -37q1 -20 0 -36q-1 -15 -2 -27q-2 -12 -4 -26q-2 -13 -5 -27q-2 -14 -4 -25q-2 -10 -4.5 -24.5t-4.5 -30.5q-1 -16 -2 -25t-5 -24q-4 -13 -8 -24q-5 -11 -11 -23t-11 -19q-5 -8 -17 -19q-11 -12 -22 -19
l-18 -10t-20 -12q-13 -8 -24 -12.5t-26 -8.5t-28 -5t-30 -2q-18 0 -35 2q-20 1 -35 8t-26 15q-12 8 -20 17l-6 7q-5 5 -4.5 12.5t6 12t13 4t11.5 -5.5l7 -7q4 -5 13 -11t20 -12q11 -4 24 -6q15 -1 31 -1q16 1 28 2q10 1 23 4q12 3 20.5 6.5t19.5 10.5t20 12t18 11q7 4 15 12
q9 10 13 15t9.5 15.5t8.5 19.5q4 9 7 20q3 12 4 19q1 9 2.5 25.5t4.5 31.5q1 9 3 17q-7 -4 -11 -8q-6 -8 -14 -16l-18 -15.5t-19 -13.5t-22 -12q-13 -6 -26 -11t-26 -7q-13 -3 -31 -2q-17 2 -29 5q-13 4 -23 10q-8 5 -18 13t-20 17q-9 9 -16 17q-8 9 -13 20q-5 9 -9 21
q-4 10 -7 22t-6 22q-3 11 -4 24q-1 11 -3.5 28l-5.5 37q-3 23 -2 40q1 16 3 30q3 14 6 24l7 20q4 12 10 23q5 13 19 30t23 23t21 13q11 7 21.5 12t18.5 8t18 5.5t23.5 3t24.5 -0.5q12 -2 23 -5q10 -3 18 -8q8 -3 17 -8q9 -6 26 -21q15 -13 26 -24l14 -14q-1 6 -3 13l-5 22
q-2 7 2 13t11 7.5t13.5 -2t7.5 -10.5zM378 321q-4 1 -8 4l-14 14l-26 25q-10 10 -25 23q-13 12 -20 16q-8 5 -14 8t-14 6q-7 2 -15 3q-9 1 -20 0.5t-18 -2t-13 -4l-15 -6.5q-10 -5 -20.5 -11t-16.5 -11q-6 -4 -17 -17.5t-15 -22.5l-8 -20l-7 -19q-2 -7 -4 -19t-3 -26t2 -33
q3 -21 5 -38t4 -28q1 -11 3 -20q3 -9 6 -20l6 -21q3 -9 7 -17q3 -6 8 -12q6 -7 14 -15t17 -14q9 -7 16 -11q6 -4 14 -6q8 -3 22 -4q13 -1 22 1t20 6q12 4 23 10q11 5 19 9.5t15.5 11t14.5 13.5l14 14q8 9 19 16l10 6q6 4 14 2q2 11 3 21q3 13 4 24t2 25t0 34q0 19 -2 32
q-2 15 -5 41z" />
    <glyph glyph-name="h" unicode="h" horiz-adv-x="445" 
d="M86 643v-10v-40q1 -30 0 -52q-1 -21 -1 -42q0 -20 1 -41l2 -41q1 -7 1 -14q14 13 26 22q15 11 22 15q8 4 24 9q15 5 27 8q12 2 20 3q9 2 22 2q12 1 21 1q11 0 24 -3t25 -8q13 -7 29 -23l20 -21q7 -7 14 -17q8 -10 14 -25q6 -14 9 -28q3 -13 5 -29t3 -28.5t1 -24.5
q1 -12 0 -23q-1 -9 -1 -24q-1 -16 -2 -28q-2 -10 -3 -20q-1 -11 -3 -22l-4 -21t-3 -18q-2 -8 -5 -18q-3 -8 -4 -15l-2 -9q-1 -7 -7.5 -11t-13.5 -2.5t-11 7.5t-2 13l2 9q2 9 4 19q3 8 4 15q2 7 4 17l4 21q2 9 2 19q1 10 3 21q1 9 2 24q0 17 1 27q1 8 0 18q0 11 -0.5 22.5
t-2.5 26.5t-5 26q-2 11 -7 23q-5 10 -10 17q-5 8 -11 13l-21 21q-11 13 -18 16q-8 4 -17 6q-10 2 -17 2q-9 0 -20 -1q-10 0 -17 -1q-9 -2 -19 -3q-10 -2 -23 -7q-13 -4 -18 -7q-6 -3 -18 -12t-27 -23l-16 -15l-1 -1q0 -14 1 -25q0 -19 -1 -38q-1 -17 -1 -39q1 -23 0 -39v-31
t-1 -27v-23q0 -12 -1 -22q-1 -9 -1 -20q-1 -12 -1 -21v-23q0 -7 -5 -12t-12 -5t-12.5 5t-5.5 12v23q0 10 1 22q0 12 1 22q1 9 1 19v24q1 11 1 27t1 31q0 15 -1 37q0 24 1 42q1 17 1 35q-1 18 -2 40q-1 23 -3 43l-2 42t-1 43q0 20 1 42q1 21 0 51v40v10q0 7 5 12t12 5
t12.5 -5t5.5 -12z" />
    <glyph glyph-name="i" unicode="i" horiz-adv-x="157" 
d="M80 633l3 -3q5 -5 5 -12.5t-5 -12.5t-12.5 -5t-12.5 5l-3 3q-5 5 -5 12.5t5 12.5t12.5 5t12.5 -5zM85 433l7 -24q7 -26 9 -47q3 -21 4 -36q2 -17 2.5 -32.5t-0.5 -32.5q-1 -15 -2 -32q-1 -15 -2 -38q-1 -18 -2 -31l-2 -26t-3 -28q-1 -14 -1 -21q0 -6 1 -11q1 -8 2 -18
v-10q0 -7 -5 -12.5t-12 -5.5t-12.5 5t-5.5 12v9q-1 8 -2 13q-1 8 -1 18q0 9 2 25q1 15 2 27l2 26t2 32.5t2 35.5q2 16 2 32q1 15 0.5 29.5t-2.5 29.5q-1 16 -3 36q-3 19 -9 41l-7 24q-2 7 1.5 13.5t10.5 8.5t13.5 -2t8.5 -10z" />
    <glyph glyph-name="j" unicode="j" horiz-adv-x="292" 
d="M208 645l3 -3q5 -5 5 -12.5t-5 -12.5t-12 -5t-12 5l-3 3q-5 5 -5 12.5t5 12.5t12 5t12 -5zM240 211q0 -16 -0.5 -30.5t-0.5 -24.5v-19q-1 -10 -3 -22l-2 -21.5t-2 -19.5q0 -11 -3 -26q-2 -13 -4 -30l-3 -26t-2 -16q-1 -8 -2.5 -16t-4 -17l-5.5 -19q-4 -11 -9 -20
q-4 -8 -10.5 -17.5t-15.5 -19.5q-9 -12 -21 -21q-13 -9 -23 -13q-9 -3 -20.5 -5t-18.5 -2h-14l-8 -1q-7 0 -12.5 5t-5.5 12t5 12.5t12 5.5l8 1h15q5 0 13 1.5t14 3.5t14 8t15 15q8 9 13.5 17t9.5 15q3 7 6 15t5 16q2 7 3 13q1 7 2 15t2 17q2 9 3 25q2 17 5 32q2 13 2 22
q1 9 2 21t3 23q1 11 2 19v17q0 10 1 25v30q1 11 1 27v33q0 16 1 30v33q1 22 1 41t-1 31l-1 13q0 7 4.5 12.5t12 6t13 -4.5t5.5 -12l1 -13q1 -13 1 -33q-1 -22 -1 -42t-0.5 -33t-0.5 -29v-34q0 -16 -1 -26z" />
    <glyph glyph-name="k" unicode="k" 
d="M354 405l-9 -5q-8 -3 -24 -16q-17 -14 -29 -23q-12 -8 -23 -18q-12 -11 -24 -24q-14 -15 -29 -26q-14 -10 -21 -16q-3 -3 -8 -7q5 -1 8 -5l14 -13q13 -13 26.5 -30l24.5 -31t18 -21q8 -8 18.5 -22.5t16.5 -25.5q7 -10 12 -18q5 -7 10 -12q5 -6 12 -12l18 -16l11 -10
q5 -4 5.5 -11.5t-4.5 -13t-12 -5.5t-13 4l-10 10q-11 9 -18 16q-8 7 -15 14t-13 16t-12 20q-6 9 -15.5 22t-16.5 20q-7 9 -19 23l-24 31q-13 15 -25 27l-13 13q-3 3 -5 8q-8 -9 -16 -15q-14 -11 -25 -17q-10 -5 -18 -8l-7 -3q-7 -3 -14 0q0 -12 1 -23q1 -21 1 -37.5
t1.5 -41.5t2.5 -33.5t1 -17.5v-15v-8q0 -7 -5 -12t-12.5 -5t-12.5 5t-5 12v8v15q0 7 -1 14q-1 9 -2.5 34.5t-1.5 43.5q0 15 -1 36q-1 19 -1 42q0 20 1 43q1 21 0 44q-1 22 -2 75.5t1 93.5q1 39 3 73q2 31 1 64l-1 32q0 7 5 12.5t12.5 5.5t12.5 -5t5 -12l1 -33q1 -33 -1 -66
q-2 -32 -3 -72t-1 -92q1 -53 2 -75q1 -24 0 -46q-1 -14 -1 -27l7 3l16 7q8 4 19.5 13t22.5 22q13 15 22 22q7 6 21 17q13 10 26 22q13 14 25 25q13 12 26 22l29 22q18 15 30 20l9 5q7 3 14 0.5t10 -9t0.5 -13.5t-9.5 -10z" />
    <glyph glyph-name="l" unicode="l" horiz-adv-x="147" 
d="M93 619l-2 -28q-2 -27 -2 -56q-1 -29 0 -48t1 -41q1 -22 1 -41q0 -20 -1 -32q0 -12 -2 -34q-1 -22 -2 -41.5t-1 -38.5q0 -18 1 -35q1 -18 1 -38q-1 -18 0 -32q0 -15 1 -22q0 -6 1 -19t2 -22q2 -9 3 -15q1 -7 2 -13q2 -7 1 -18v-10q0 -7 -5 -12.5t-12 -5.5t-12.5 5.5
t-5.5 12.5v10v12q-2 6 -3 12q-1 7 -2 17q-2 10 -3 24q-1 13 -1 21q-1 8 -1 22q-1 14 0 34q0 18 -1 35q-1 18 -1 37t1 40l2 41q2 23 2.5 34.5t0.5 30.5q0 18 -1 41q0 21 -1 40t0 49q0 30 2 58l2 28q1 7 6.5 12t12.5 4.5t11.5 -6t4.5 -12.5z" />
    <glyph glyph-name="m" unicode="m" horiz-adv-x="706" 
d="M62 78l-3 31q-3 30 -5 68q-1 37 -3 59q-1 24 -1 47t0.5 45.5t1.5 39.5q1 18 3 29q1 11 2 18t1 14v8q0 7 5 12t12 5t12.5 -5t5.5 -12v-8q0 -9 -1 -17t-3 -19q0 -5 -1 -11q6 9 13 18q16 20 34 32q17 11 34 17t28 8q10 1 22 2q13 1 24 0.5t24 -2.5t24.5 -5t22.5 -8
q12 -5 22 -11q10 -7 17 -16q6 -8 12 -17q5 -9 11 -23q7 7 13 14l17 17q9 9 28.5 21t32.5 16q12 4 21 6q8 1 15 1q9 1 29 -3q19 -4 29 -7q11 -4 22 -12q9 -8 20 -19t19 -22t14 -25t10 -28t6 -27t3 -30t1 -32q1 -14 0 -32t-3 -36q-2 -17 -4 -29q-1 -12 -1 -24v-24
q-1 -11 -1 -19v-30q0 -7 -5 -12t-12 -5t-12.5 5t-5.5 12v30q0 9 1 20v23q0 14 2 28q1 12 3 29t3 33.5t0 30.5q0 14 -1 30q-1 15 -2 26q-2 11 -5 23q-4 12 -9 24q-5 11 -10 19q-6 8 -16 17q-9 10 -17 16q-6 5 -12 7q-7 2 -24 5q-16 3 -20 3q-5 0 -12 -1q-6 -1 -15 -4t-25 -13
t-23 -16q-7 -8 -16 -16q-7 -8 -16 -17q-5 -6 -10 -13q4 -15 5 -30q1 -18 -1 -48q-1 -28 -4 -49l-3.5 -35l-2.5 -25l-2 -21.5t-3 -22.5t-3 -21q-1 -10 -4 -20q-9 -31 -34 13l-3 5q0 22 0.5 48t0.5 53q1 26 1 55q0 30 3 48q2 17 6 34q3 11 7 21l-2 6q-2 7 -5 14q-5 13 -9 20
t-9 13q-4 4 -10 8q-7 5 -16 9t-18 6.5t-20.5 4.5t-20.5 2t-19 -1q-11 0 -20 -2q-8 -1 -21 -6q-13 -4 -27 -14q-13 -8 -25 -24q-14 -17 -21 -32l-8 -18q-5 -8 -14 -10q-1 -17 -1 -35q0 -22 1 -44q2 -23 3 -61q2 -36 5 -66l3 -30q1 -7 -4 -12.5t-12 -6.5t-12.5 3.5t-6.5 11.5z
" />
    <glyph glyph-name="n" unicode="n" horiz-adv-x="471" 
d="M100 448l1 -6q1 -7 4 -33q2 -23 1 -57q7 13 14 21q9 11 20 22q10 11 18.5 19.5t17.5 15.5q10 8 21 13.5t25 9.5q13 4 21 6q8 1 29.5 3t31.5 1q12 0 24 -4t25 -13q12 -8 21 -18q8 -8 19 -23q11 -17 18 -42q7 -24 9 -37.5t2 -31.5q0 -16 -1 -34q0 -19 -2 -36q-2 -15 -4 -36
q-2 -18 -4 -31q-1 -13 -4 -29l-3 -23q0 -8 -1 -19q-1 -10 0 -15v-7q1 -7 -3.5 -13t-11.5 -6.5t-13 4t-6 11.5l-1 8q-1 8 0 20t2 21l3 24t3 28q2 13 4 31q2 19 4 36q2 16 2 33q1 17 1 33q0 15 -1.5 26.5t-7.5 33.5q-6 19 -14 31q-9 12 -16 20q-6 6 -15 12q-8 6 -16 8
q-7 3 -14 3q-8 0 -27.5 -1t-26.5 -3q-6 -1 -17 -4t-19 -7.5t-16 -10.5t-15 -13t-17 -18q-10 -10 -18 -20q-7 -9 -16 -25q-8 -17 -12 -29q-3 -13 -5 -25q-2 -13 -5 -30q-3 -14 -5 -32q-2 -17 -3 -28q-1 -19 -4 -43q-2 -26 -8 -45q-2 -2 -6.5 -5l-13 -8.5t-14 -3.5t-5.5 13
q0 8 1 17q0 8 1 20v20q0 9 3 43l9 75q4 42 6 80q2 37 0 61t-3 29l-1 6q-2 7 2 13.5t11 7.5t13.5 -3t7.5 -11z" />
    <glyph glyph-name="o" unicode="o" horiz-adv-x="424" 
d="M304 389l-35 5q-31 5 -66 -5q-36 -11 -61 -33q-26 -22 -39 -49q-13 -29 -16.5 -59t1.5 -54q4 -26 13 -49t20 -41q11 -17 40 -38q27 -20 48 -21q23 -2 42 5q19 6 24.5 10.5t17.5 28.5q13 24 21 57l16 62q6 26 9 44q2 17 0 41q-2 23 -7 32q-4 8 -10 14l-9 8q-5 4 -5.5 11.5
t4 13t12 6t12.5 -4.5l9 -8q11 -9 19 -25q7 -14 10 -43q2 -29 -1 -50q-2 -20 -9 -48l-16 -61q-9 -37 -24 -66t-25.5 -38t-36.5 -17q-26 -9 -55 -7q-31 2 -67 28q-34 24 -48 47q-14 22 -24 48t-15 54q-5 30 -1 65.5t20 69.5q15 34 47 61q31 26 74 39q42 13 81 7l35 -5
q7 -1 11.5 -7t3.5 -13t-7 -11.5t-13 -3.5z" />
    <glyph glyph-name="p" unicode="p" horiz-adv-x="474" 
d="M103 407l9 6q10 6 36 18q27 13 69 20q43 8 70 2q26 -7 44 -18t31 -22q14 -11 26 -28q11 -17 19 -36q7 -19 12 -36q4 -18 5 -34q2 -18 -3 -36q-4 -16 -15.5 -38.5t-31.5 -44.5l-34 -38q-17 -18 -36 -35q-20 -18 -39 -29q-20 -11 -46 -17q-24 -5 -45 -6t-45 2q-18 2 -30 5
q1 -6 1 -12q6 -48 10 -71q3 -24 4 -39l2 -29q1 -14 2 -24t2 -19v-7q0 -8 -5 -13t-12.5 -5t-12.5 5t-5 12v7q-1 6 -2 16t-2 26q-1 13 -2 28q-1 14 -4 37l-9 72q-2 12 -3 25q-15 5 -13 20q2 8 9 12q-2 24 -5 51q-5 60 -4 129q2 69 7 115l5 45q1 7 6.5 11.5t12.5 3.5t11.5 -6.5
t4.5 -12.5l-5 -45q-5 -44 -7 -112q-1 -67 4 -125q3 -30 6 -57q2 -1 6 -2q12 -4 32.5 -6.5t38.5 -1.5t40 5q20 5 36 14t33 24q18 16 33 33l34 38q17 18 26.5 36.5t12.5 31.5q3 12 3 24q-1 13 -5 28t-11 32q-6 16 -15 29t-19 22q-12 9 -27 18q-14 9 -34 14q-20 4 -56 -2
q-38 -7 -60 -18q-24 -11 -32 -16l-9 -6q-6 -3 -13 -1.5t-11 7.5t-2.5 13t7.5 11z" />
    <glyph glyph-name="q" unicode="q" horiz-adv-x="554" 
d="M383 -158q-4 3 -5 8l-3 9q-2 9 -4 17q-1 7 -2.5 14t-3.5 15q-2 9 -4 24q-2 14 -6 31l-6 34q-3 16 -6 39l-2 14q-7 -7 -15 -12q-8 -4 -18 -8t-21 -9l-23 -8t-24 -6q-14 -3 -30 -2.5t-31 5.5t-36 16q-20 11 -34 22t-22 22q-7 10 -14.5 24.5t-13.5 30.5q-6 18 -8 35t1 49
t9.5 55t18 48t31.5 54q21 31 41 45q19 13 39 25q24 13 59 16q36 3 56 -6l16 -8q7 -3 9.5 -9.5t-0.5 -13t-10 -9t-14 0.5l-15 7q-12 5 -39 3q-28 -2 -44 -11q-19 -11 -36 -23q-15 -11 -33 -37q-18 -27 -28.5 -49.5t-16.5 -42.5t-8 -48q-3 -29 -1.5 -42t6.5 -27t11.5 -26
t12.5 -20q5 -7 15 -15q11 -9 29 -19t30 -13q10 -4 22 -5q12 0 21 2q11 2 20 5l21 8l21 8q7 3 14 7q5 3 11 9q7 6 11 12l4 6q2 3 4 4q0 19 1 41q1 31 3 62q3 30 5 58q2 26 3.5 49.5t5.5 63t7 60.5l3 21q1 7 7 11.5t13 3.5t11.5 -7t3.5 -13l-3 -21q-3 -21 -7 -59.5t-5 -61.5
q-2 -23 -4 -50t-5 -58q-2 -30 -3 -60t-1 -54q1 -24 3 -45q3 -22 6 -38t7 -33q3 -18 5 -33q2 -13 4 -20q2 -9 3.5 -16.5t3.5 -15.5q1 -5 2 -12q8 8 16 18l34 35l17 18q5 5 12 5t12 -5t5.5 -12.5t-4.5 -12.5l-17 -17q-17 -17 -33 -35l-28 -31l-13 -14q-5 -5 -12 -5.5t-12.5 4
t-6 11.5t4.5 13z" />
    <glyph glyph-name="r" unicode="r" horiz-adv-x="312" 
d="M84 454l3 -10q3 -12 5 -51q2 -24 1 -53q4 5 7 10q9 14 20 27q10 14 24 27q13 13 30 24q16 10 26 15q10 6 17.5 9t16.5 5l7 2q7 2 13.5 -2t8 -10.5t-2 -13t-10.5 -8.5l-8 -2q-6 -1 -11.5 -3.5l-14.5 -6.5l-23 -15q-14 -9 -25 -20q-12 -11 -21 -22.5t-18 -25.5
q-8 -12 -14 -26t-7 -25q-1 -14 -2 -21t-2.5 -25t-2.5 -39q-1 -20 0 -39q0 -22 1 -37q1 -18 -1 -39q0 -4 -18 -15q-19 -11 -19 3v15v20q-1 12 -2 34q-2 22 -4 72q-1 50 0 99q1 48 -1 84t-4 44l-2 10q-2 7 1.5 13t10.5 8t13.5 -1.5t7.5 -10.5z" />
    <glyph glyph-name="s" unicode="s" horiz-adv-x="445" 
d="M326 352l-10 9q-12 9 -25 21q-11 11 -25 20t-21 13q-6 3 -18 4t-23 0t-19 -4q-7 -2 -15 -7l-20 -14q-9 -7 -15 -14q-5 -6 -8 -19t-1 -24q3 -13 9 -24q5 -10 14 -20q8 -9 21 -17t29 -14q17 -6 26 -9.5t26.5 -9.5t30.5 -10q14 -4 25 -8q12 -4 23 -9q12 -5 27 -18
q15 -14 22 -27q6 -12 10 -29t6 -29q2 -14 -1 -28q-3 -15 -19 -31q-13 -13 -21 -18q-7 -4 -19 -10q-13 -6 -30 -10q-16 -4 -30 -6q-16 -3 -34 -1q-16 2 -34 4t-34 5t-36 10q-21 7 -31 15q-10 7 -25 24q-13 15 -21 26l-7 9q-4 6 -3 13.5t7 11.5t13 3t12 -7l7 -10q6 -9 19 -24
q11 -13 18 -18q6 -4 23 -10t31 -9q14 -2 31 -4q18 -2 34 -4q14 -1 25 0q12 2 26 6q14 3 24 8l16 8q4 3 14 13q8 8 10 13q1 8 0 17q-1 10 -5 24q-3 14 -7 22q-4 7 -14 16q-11 10 -18 13q-9 4 -20 8q-11 3 -24 7l-31.5 11l-27.5 9.5t-27 10.5q-18 7 -34 16q-17 11 -29 24
q-11 12 -19 27t-12 33q-4 19 1 39q5 21 15 32q8 11 21 21q12 9 22 15q12 8 24 11q11 4 25 6q15 1 31 0q17 -2 28 -7q10 -5 27 -15q16 -11 30 -24q12 -12 22 -20l10 -9q6 -4 7 -11.5t-3.5 -13t-12 -6.5t-13.5 4z" />
    <glyph glyph-name="t" unicode="t" horiz-adv-x="339" 
d="M63 438l18 5q19 5 53 3q-1 30 -4 51q-4 26 -6 34l-1 8q-2 8 2.5 14t11.5 7t13 -3t7 -11l2 -9q1 -8 5 -34q4 -25 5 -59q24 -2 54 -2l49 -1q7 0 12.5 -5t5 -12t-5.5 -12.5t-12 -5.5l-50 1q-28 0 -52 2q0 -26 -2 -54q-2 -45 -3 -83t1 -62t4 -40q3 -14 7 -27q4 -14 9 -28.5
t9 -24.5q3 -8 7 -13q5 -6 13 -12q9 -7 19 -17q12 -9 19 -16l8 -7q5 -5 5 -12.5t-5 -12.5t-12 -5t-13 4l-7 7q-7 7 -17.5 16l-19.5 17q-10 8 -17 16q-7 9 -12 22q-5 11 -10 26l-10 29q-4 15 -7 32t-5 43t-1 66q1 38 3 84q2 28 2 54q-31 2 -45 -2l-18 -5q-7 -1 -13.5 2.5
t-8 10.5t2 13t10.5 8z" />
    <glyph glyph-name="u" unicode="u" horiz-adv-x="422" 
d="M359 182q1 -21 2 -34q1 -15 0 -23v-21v-23q0 -8 -1 -18v-10q-1 -7 -6 -12t-12.5 -4.5t-12 6t-4.5 12.5v10q1 9 1 16v11q-2 -4 -5 -8q-8 -14 -13 -20q-6 -8 -13 -15q-9 -8 -22 -13q-12 -5 -25 -8q-15 -3 -31 -5q-17 -2 -31 0q-13 3 -28 7t-28 10q-13 7 -25 15
q-13 10 -26 28q-13 19 -17 37q-2 15 -4 28t-3 30q-2 19 -1.5 39.5t1 44t1.5 47.5t1 49t-2 41q-1 16 -2 20l-2 6q-2 7 1.5 13.5t10 8.5t13 -1.5t8.5 -10.5l2 -6q3 -8 4 -27q2 -17 2 -44q0 -25 -1 -49q-1 -26 -2 -48v-44q-1 -20 1 -36q1 -16 2.5 -28t4.5 -26q2 -11 11 -24
t17 -19q10 -7 20 -12t23 -8q14 -4 24 -6q9 -2 22 0q14 1 26 4q11 3 20 6q7 3 11 7q5 4 9 9q4 6 12 19q7 12 18 41q9 24 14 42q-1 18 -1 36v43q1 24 3 46.5t4 49.5t3 46q0 6 18 15.5t18 -2.5q0 -5 1 -16q1 -12 1.5 -29t0.5 -34v-38q-1 -21 -2 -37q0 -16 -3 -37q-2 -22 -7 -44
q-1 -1 -1 -3z" />
    <glyph glyph-name="v" unicode="v" horiz-adv-x="436" 
d="M84 456l3 -9q3 -7 17 -36q15 -29 34 -71t32.5 -78.5t23.5 -69.5q9 -32 15 -51l1 -2t1 -3l21 59q12 34 24 62q12 27 22 53q10 28 15.5 41t21.5 47q16 35 23 46q7 12 12 19l5 6q4 6 11 7.5t13 -2.5t7 -11.5t-3 -13.5l-5 -7q-4 -6 -10 -16t-22 -43l-20.5 -45.5t-15.5 -39.5
t-22 -55q-11 -27 -23 -60l-21 -58q-10 -28 -20 -41q-2 -1 -4.5 -2.5t-8.5 -4t-11 -2.5t-9.5 4t-5.5 13l-2.5 13t-6.5 26l-16 51q-9 32 -22.5 67.5t-31.5 76.5t-33 70t-19 39l-3 8q-2 7 0.5 13.5t9.5 9t13.5 -0.5t9.5 -9z" />
    <glyph glyph-name="w" unicode="w" horiz-adv-x="641" 
d="M85 457l5 -27q5 -26 16 -70q11 -45 18 -85q7 -38 14 -63q8 -24 21 -49l21 -43q2 -5 4 -9l24 68q19 53 30 91q11 39 25 70q14 30 22 44q6 12 9 20q3 10 6 18q13 40 44 -24l6 -13q13 -44 25 -80l23 -66l24 -68l21 -57q8 -20 12 -29q1 -1 2 -3q5 11 10 29l25.5 87.5
t34.5 123.5q18 62 22 86q5 25 7 32l1 6q2 7 8 11t13 2t11 -8t2 -13l-2 -6l-5 -30q-5 -26 -23 -90l-35 -123l-25 -88q-9 -31 -20 -46q-4 -5 -11 -9.5t-16 -4.5t-16 8q-8 9 -14 21q-5 10 -14 31l-21 58l-24 67.5t-23 67.5l-25 77q0 -1 -2 -4q-7 -13 -20 -41q-13 -29 -24 -66
q-11 -39 -29.5 -92t-29.5 -82l-14 -24q-19 -26 -33 1q-3 10 -7 18q-4 10 -10.5 24.5l-19.5 41.5q-15 28 -23 55t-15 67q-7 39 -18 83q-11 45 -16 72l-6 26q-1 7 3 13.5t11 7.5t13 -3t8 -11z" />
    <glyph glyph-name="x" unicode="x" 
d="M124 443l4 -9q4 -10 13 -29t27 -61q11 -24 26 -52l39 44l56 61l45 48l17 20q4 6 11.5 6.5t13 -4.5t6 -12t-4.5 -13l-17 -20l-45 -49l-56 -60l-40 -45q-3 -5 -8 -9q3 -4 5 -8q30 -52 50 -77q20 -26 37 -46q16 -19 27.5 -30.5t19.5 -17.5q10 -8 18 -18l7 -8q4 -5 3 -12.5
t-6.5 -12t-12.5 -3.5t-12 6l-6 8q-5 7 -13 13q-9 7 -22 19.5t-30 33.5l-37.5 46t-50.5 78l-37 -47q-17 -24 -27 -40q-8 -15 -14 -31q-6 -18 -12 -32l-6.5 -23t-4.5 -17l-3 -8q-1 -7 -7.5 -11t-13.5 -2t-10.5 8.5t-1.5 12.5l2 9q2 8 4 17q3 11 9 26l11 32q7 19 17 37
q10 17 29 43q18 24 38 48q4 5 8 11q-20 36 -33 67q-18 42 -27 61t-13 29l-4 9q-3 7 -0.5 14t9 9.5t13.5 0t10 -9.5z" />
    <glyph glyph-name="y" unicode="y" horiz-adv-x="463" 
d="M412 438l-12 -22q-11 -21 -19 -34q-7 -12 -18 -36q-10 -24 -13 -36l-8 -29t-7 -28q-4 -15 -8 -27q-5 -11 -13 -32q-9 -21 -14 -34l-10 -25t-11 -25l-11 -24q-4 -12 -7.5 -21t-9.5 -23q-5 -15 -11 -26q-5 -11 -13 -25q-9 -15 -17 -25q-8 -9 -14 -17l-14 -20
q-9 -12 -21.5 -24.5t-21.5 -18.5q-8 -5 -15.5 -10.5l-17.5 -13.5l-11 -9q-5 -4 -12.5 -3.5t-12 6t-3.5 13t6 11.5l11 9q10 9 18.5 15t16.5 11q6 5 16.5 15t18.5 20l14 19q6 9 15 19q7 9 14 21t12 22v1l-3 7q-3 8 -5 14q-3 8 -6 18q-2 8 -4 21q-3 12 -4 21q-2 9 -4.5 18
t-6.5 18q-4 10 -9 31l-8 31.5l-5 19.5q-2 9 -5 19q-2 10 -6 21q-3 10 -6 18t-7 15q-5 8 -12 24q-8 18 -14 30t-11 23l-13 30q-7 17 -17 37l-11 20q-3 7 -1 14t8.5 10t13.5 1t10 -8l11 -21q11 -22 19 -40q7 -18 12 -28q5 -11 11 -23l13 -30q7 -15 11 -22q5 -8 9 -18
q5 -10 8 -22l6 -23q2 -8 5 -18q2 -9 5 -20t8 -31q5 -19 8 -28q4 -10 7 -20.5t5 -20.5q2 -9 4 -21q2 -11 4 -18l7 18l11 25.5l11 25l10 23.5l13 34q9 21 13 32q4 10 7 22q3 14 7 29l8 29q4 15 16 41q11 26 19 39l18 34l12 21q3 6 10 8.5t13.5 -1t8.5 -10.5t-1 -13z" />
    <glyph glyph-name="z" unicode="z" horiz-adv-x="558" 
d="M70 465l7 -1q6 -1 57 -7q51 -5 90 -5h53h34h39h43q39 0 0 -47l-6 -6l-60 -56l-71 -70l-52 -52t-38 -43q-22 -27 -35 -52l-23 -44q-9 -18 -14 -29q-2 -3 -3 -6q4 -1 7 0q13 0 53 4q41 4 88 4q47 1 89 -5q41 -5 67 -9q25 -4 42 -5q16 -1 27 -1q13 1 22 0l7 -1
q7 -1 11.5 -6.5t3.5 -13t-6.5 -12t-13.5 -3.5l-7 1q-6 1 -16 0q-12 0 -31 1q-18 1 -44 5t-67 9q-39 6 -84 5q-45 0 -85 -4t-54 -4q-16 -1 -30 4q-9 3 -15 12t-2 21q3 7 9 19l15 30l23 44q15 28 39 58t40 46q16 15 52 52l72 70l52 49h-5h-39h-34h-53t-94 5q-52 6 -59 8l-7 1
q-7 1 -11 7t-3 13t7 11t13 3z" />
    <glyph glyph-name="quoteleft" unicode="&#x2018;" horiz-adv-x="153" 
d="M64 416l-4 9q-6 11 -8 30q-3 17 -2 34q1 16 2 25l3.5 30.5t5.5 34.5q3 14 6 22l2 7q3 6 9.5 9t13.5 0.5t10 -9t0 -13.5l-2 -6q-2 -6 -5 -18q-3 -11 -5 -30q-2 -22 -3 -30q-1 -9 -2 -24q-1 -13 1 -28q2 -13 5 -19l4 -8q4 -7 1.5 -14t-9 -10t-13.5 -0.5t-10 8.5z" />
    <glyph glyph-name="quoteright" unicode="&#x2019;" horiz-adv-x="160" 
d="M110 611l-1 -8q-1 -9 -4 -26q-3 -16 -12 -72q-8 -55 -8 -67v-13q0 -7 -5 -12.5t-12.5 -5.5t-12.5 5t-5 13v13q0 15 8.5 72.5t11.5 73.5t4 24l2 9q1 7 6.5 11t13 3t11.5 -7t3 -13z" />
    <glyph glyph-name="quotedblleft" unicode="&#x201c;" horiz-adv-x="306" 
d="M256 575l-17 -49q-16 -47 -18 -77l-3 -31q0 -7 -5.5 -12t-13 -4t-12 6.5t-4.5 12.5l3 31q3 34 20 85l17 50q2 6 8.5 9.5t13.5 1t10 -9t1 -13.5zM150 602l-19 -38q-18 -36 -32 -83l-15 -49q-2 -6 -8.5 -9.5t-13 -1.5t-10 8.5t-1.5 13.5l14 48q16 50 35 89l18 38
q4 6 10.5 8.5t13 -0.5t9 -10t-0.5 -14z" />
    <glyph glyph-name="quotedblright" unicode="&#x201d;" horiz-adv-x="308" 
d="M238 638l9 -25q9 -28 11 -75q1 -47 -2 -62l-2 -13q-1 -7 -7.5 -11t-13.5 -3t-11 7t-2 13l2 13q2 11 1 54q-2 43 -9 65l-9 26q-2 6 1.5 12.5t10 9t13 -1t8.5 -9.5zM84 621l10 -32q12 -36 6 -66l-4 -26q-1 -7 -7 -11.5t-13 -3t-11.5 7.5t-3.5 13l5 26q4 21 -5 49l-10 33
q-2 7 1 13.5t10 8.5t13.5 -1.5t8.5 -10.5z" />
  </font>
</defs>
</svg>
